<svg xmlns="http://www.w3.org/2000/svg" enable-background="new 0 0 3000 3000" viewBox="0 0 3000 3000"><path fill="#febb46" d="M2148,2633.6c-207.7,53.1-1417.9,38.6-1443.7,16.4c-13.9-11.9-41-78,180.2-88.3
		c-158.8-181.6-101.2-284.8,109.2-197.5c-173.7-350.4,154-402.8,225.3-394.3c56.6,6.7,439.7,83.6,192.5,420.1
		c216.4-72.5,255.1,38.7,131,151.8c97.9-15.9,143.4-17,159.8,34.7C1828,2579.2,2195.9,2621.3,2148,2633.6z"/><path fill="#30a0b2" d="M1061,2291.2c0,0-80.1-12-130.8,60.1c0,0,86.8,22.7,114.8,46.7c28,24,56.1,18.7,56.1,18.7
						S1106.4,2311.2,1061,2291.2z"/><path fill="#fff" d="M1039.9,2343.6c0,0-8.5-21.5-7.7-21.8c0.8-0.3,11.7,23.1,11.7,23.1c23.2,7.6,40.1,17.7,41.1,20
						c0.3,0.8,0,1.7-0.8,2c-0.2,0.1-0.4,0.1-0.6,0.1c-0.6,0-1.1-0.3-1.4-0.8c-1.7-2.1-23.8-14.7-51.8-22c0,0,0,0-0.1,0.1
						c0,0-25,15.1-25.3,14.7c-0.5-0.7,21.2-15.8,21.2-15.8c-13.5-3.2-43.9-4.4-44-5.2C982.2,2337.2,1022.9,2338.4,1039.9,2343.6z"/><path fill="#da5638" d="M1201.8,2235.1c0,0-41.4-6.7-45.4-57.4c-4-50.7-34.7-112.1-49.4-98.8c-14.7,13.3-4,61.4-24,73.4
						c-20,12-86.8,32-66.7,97.4c20,65.4,56.1,62.7,56.1,78.7c0,16-25.4,52.1,5.3,80.1c30.7,28,64.1,12,64.1,12L1201.8,2235.1z"/><path fill="#febb46" d="M1120,2450.8l-6.5-99.2c0,0,0,0,0,0c-13.6-11.5-31.9-27.4-31.1-27.3c3.6,0.4,22.3,15.9,30.8,23l-4.3-65.4
						c-0.2-0.1-0.4-0.1-0.5-0.3c-15.7-13.3-37.7-28.8-37.6-29.6c0.1-0.9,28.5,17.9,37.8,25.7l-3.5-53.3c0,0-0.1,0-0.1-0.1
						c-10-8.5-23.8-21.3-23-21.2c2.7,0.3,15.5,10.8,22.8,17c0,0-2.5-49.5-1.7-49.6c0.9-0.1,5.5,59.4,5.5,59.4
						c6.5-7.1,17.6-18.8,20.2-19.4c0.8-0.2-11.1,14.1-19.9,23.8l3.5,52.8c8.6-9.4,33.2-30.4,33.4-29.6c0.2,0.8-19.3,18.7-33.1,33.9
						l4.2,64.4c7.4-8,24.4-26.2,27.9-27.1c0.8-0.2-15.3,17.9-27.3,31.1c-0.1,0.1-0.2,0.2-0.3,0.3l5.9,90.6c0,0.6-0.3,1.1-0.7,1.4
						c-0.2,0.1-0.5,0.2-0.7,0.2C1120.8,2452.3,1120.1,2451.6,1120,2450.8z"/><path fill="#30a0b2" d="M1300.6,2137.7c0,0-120.1,37.4-152.2,146.8c-32,109.4,0,133.5,0,133.5s88.1-1.3,129.5-102.8
						C1319.3,2213.8,1300.6,2137.7,1300.6,2137.7z"/><path fill="#fff" d="M1143.5,2426.1l47.2-87.4c0,0,0,0,0,0c-5.4-17-14.5-38.7-14-39.4c0.5-0.7,12.6,25.1,16,35.6l31.1-57.6
						c-0.1-0.1-0.2-0.3-0.3-0.5c-6.2-19.6-16.6-44.4-16.1-45c0.5-0.7,14.6,30.3,18.3,41.9l25.4-47c0,0,0-0.1-0.1-0.1
						c-4-12.5-8.9-30.7-8.2-30.2c2.1,1.7,7.4,17.4,10.3,26.5c0,0,24.2-43.3,24.9-42.9c0.8,0.4-27,53.2-27,53.2
						c9.2-2.5,24.9-6.6,27.5-5.7c0.8,0.3-16.9,6-29.5,9.5l-25.1,46.6c12.3-3.4,44.3-8.1,44-7.3c-0.2,0.8-26.3,5.6-46.1,11.1
						l-30.6,56.8c10.5-2.9,39.3-7,39-6.2c-0.3,0.8-23.5,5.1-40.6,9.8c-0.1,0-0.3,0.1-0.4,0.1l-43.1,79.9c-0.3,0.5-0.8,0.8-1.4,0.8
						c-0.2,0-0.5-0.1-0.7-0.2C1143.4,2427.8,1143.1,2426.9,1143.5,2426.1z"/><path fill="#2b3e6d" d="M1119.2,2672c0.8,0,1.7,0,2.6,0c77.4,0,60.1-250.1,60.1-250.1h-133.5C1048.4,2422,1034,2670.1,1119.2,2672z
					"/><path fill="#1b2d51" d="M1119.2,2672c-0.3-0.1-0.7-0.3-1-0.4c-37.5-15.4-19.9-242.9-18.3-249.6h-51.5
					C1048.4,2422,1034,2670.1,1119.2,2672z"/><path fill="#1b2d51" d="M1063,2680c0-0.4-0.2-0.7-0.2-1.1c0-14.4,25-26.2,55.8-26.2c30.8,0,55.8,11.7,55.8,26.2
				c0,0.4-0.2,0.7-0.2,1.1H1063z"/><path fill="#2b3e6d" d="M2406.9,347.1H593.1c-19.9,0-36,16.1-36,36v147.9h1885.8V383.1C2442.9,363.3,2426.8,347.1,2406.9,347.1z"/><path fill="#fff" d="M2219.2 428.9c0 10.3-8.4 18.7-18.7 18.7-10.3 0-18.7-8.4-18.7-18.7 0-10.3 8.4-18.7 18.7-18.7C2210.8 410.2 2219.2 418.5 2219.2 428.9zM2290 428.9c0 10.3-8.4 18.7-18.7 18.7-10.3 0-18.7-8.4-18.7-18.7 0-10.3 8.4-18.7 18.7-18.7C2281.6 410.2 2290 418.5 2290 428.9z" opacity=".5"/><path fill="#fff" d="M2360.8,428.9c0,10.3-8.4,18.7-18.7,18.7c-10.3,0-18.7-8.4-18.7-18.7c0-10.3,8.4-18.7,18.7-18.7
			C2352.4,410.2,2360.8,418.5,2360.8,428.9z"/><linearGradient id="a" x1="1503.075" x2="1497.38" y1="1823.711" y2="434.123" gradientUnits="userSpaceOnUse"><stop offset="0" stop-color="#ffe9fe"/><stop offset=".419" stop-color="#cfb3fd"/><stop offset="1" stop-color="#906bfc"/></linearGradient><path fill="url(#a)" d="M557.1,521.1v1104.5c0,19.9,16.1,36,36,36h1813.8c19.9,0,36-16.1,36-36V521.1H557.1z"/><path fill="#fff" d="M1178,860.5c0,41.4-11.5,80.5-31.4,113.6c-38.6,64.8-109.4,108.2-190.4,108.2c-80.7,0-151.5-43.4-190.2-107.9
		c-20.2-33.4-31.7-72.3-31.7-113.9c0-122.6,99.4-221.8,221.8-221.8C1078.8,638.7,1178,737.9,1178,860.5z" opacity=".5"/><path fill="#fff" d="M978.5,862.8c27.7-9.3,47.7-35.4,47.7-66.3c0-38.6-31.3-70-70-70s-70,31.3-70,70c0,30.8,20,56.9,47.6,66.3
		c-62.1,8.5-113,51.9-132.2,109.8c34.6,47.8,91,79,154.6,79c63.6,0,119.9-31,154.6-78.9C1091.6,914.7,1040.6,871.3,978.5,862.8z"/><rect width="151.8" height="24" x="730.5" y="1244.3" fill="#fff"/><rect width="270.9" height="24" x="911" y="1244.3" fill="#fff" opacity=".5"/><rect width="451.4" height="63.7" x="730.5" y="1150.5" fill="#fff" opacity=".5"/><rect width="242.3" height="24" x="730.5" y="1293" fill="#fff" opacity=".5"/><path fill="#fff" d="M849.2,1425.1c0,33.8-27.4,61.1-61.1,61.1c-33.8,0-61.1-27.4-61.1-61.1c0-33.8,27.4-61.1,61.1-61.1
				C821.9,1364,849.2,1391.4,849.2,1425.1z" opacity=".5"/><polygon fill="#fdfdfd" points="812.5 1419.6 793.6 1419.7 793.6 1400.7 782.6 1400.7 782.6 1419.7 763.7 1419.7 763.7 1430.6 782.6 1430.6 782.6 1449.6 793.6 1449.6 793.6 1430.6 812.5 1430.6"/><path fill="#fff" d="M1015.6,1425.1c0,33.8-27.4,61.1-61.1,61.1c-33.8,0-61.1-27.4-61.1-61.1c0-33.8,27.4-61.1,61.1-61.1
				C988.2,1364,1015.6,1391.4,1015.6,1425.1z" opacity=".5"/><polygon fill="#fdfdfd" points="978.9 1419.6 959.9 1419.7 959.9 1400.7 948.9 1400.7 949 1419.7 930 1419.7 930 1430.6 949 1430.6 949 1449.6 959.9 1449.6 959.9 1430.6 978.9 1430.6"/><path fill="#fff" d="M1181.9,1425.1c0,33.8-27.4,61.1-61.1,61.1c-33.8,0-61.1-27.4-61.1-61.1c0-33.8,27.4-61.1,61.1-61.1
				C1154.5,1364,1181.9,1391.4,1181.9,1425.1z" opacity=".5"/><polygon fill="#fdfdfd" points="1145.2 1419.6 1126.2 1419.7 1126.2 1400.7 1115.3 1400.7 1115.3 1419.7 1096.3 1419.7 1096.3 1430.6 1115.3 1430.6 1115.3 1449.6 1126.3 1449.6 1126.2 1430.6 1145.2 1430.6"/><rect width="89.5" height="22.6" x="1347.7" y="691.1" fill="#fff"/><rect width="89.5" height="22.6" x="1347.7" y="737" fill="#fff" opacity=".5"/><rect width="89.5" height="22.6" x="1347.7" y="782.8" fill="#fff" opacity=".5"/><rect width="324.9" height="3.9" x="1459.6" y="709.8" fill="#fff"/><rect width="324.9" height="3.9" x="1459.6" y="755.6" fill="#fff"/><rect width="324.9" height="3.9" x="1459.6" y="801.5" fill="#fff"/><rect width="146.9" height="22.6" x="1877.6" y="767.3" fill="#fff" opacity=".5"/><rect width="262.2" height="22.6" x="2052.3" y="767.3" fill="#fff"/><rect width="436.9" height="22.6" x="1877.6" y="709.8" fill="#fff"/><rect width="262.2" height="22.6" x="1877.6" y="813.1" fill="#fff" opacity=".5"/><g><rect width="89.5" height="114.3" x="1347.7" y="909.8" fill="#fff"/><rect width="144.8" height="22.6" x="1639.7" y="909.8" fill="#fff"/><rect width="145" height="22.6" x="1464.9" y="909.8" fill="#fff" opacity=".5"/><rect width="107.5" height="22.6" x="1464.9" y="955.7" fill="#fff" opacity=".5"/><rect width="191.8" height="22.6" x="1592.7" y="955.7" fill="#fff"/><rect width="191.8" height="22.6" x="1464.9" y="1001.5" fill="#fff" opacity=".5"/></g><g><rect width="436.9" height="45.8" x="1877.6" y="909.8" fill="#fff" opacity=".25"/><rect width="146.9" height="22.6" x="1877.6" y="983.1" fill="#fff" opacity=".5"/><rect width="262.2" height="22.6" x="2052.3" y="983.1" fill="#fff"/><rect width="262.2" height="22.6" x="1877.6" y="1029" fill="#fff" opacity=".5"/></g><g><rect width="89.5" height="22.6" x="1347.7" y="1128.6" fill="#fff"/><rect width="144.8" height="22.6" x="1639.7" y="1128.6" fill="#fff"/><rect width="145" height="22.6" x="1464.9" y="1128.6" fill="#fff" opacity=".5"/><rect width="146.9" height="22.6" x="1347.7" y="1174.4" fill="#fff" opacity=".5"/><rect width="262.2" height="22.6" x="1522.3" y="1174.4" fill="#fff"/><rect width="262.2" height="22.6" x="1347.7" y="1220.2" fill="#fff" opacity=".5"/></g><g><rect width="89.5" height="22.6" x="1877.6" y="1128.6" fill="#fff"/><rect width="89.5" height="22.6" x="1877.6" y="1198.5" fill="#fff"/><rect width="89.5" height="22.6" x="1877.6" y="1268.4" fill="#fff"/><rect width="89.5" height="22.6" x="1877.6" y="1338.3" fill="#fff"/><rect width="319.7" height="22.6" x="1994.8" y="1128.6" fill="#fff" opacity=".5"/><rect width="194.5" height="22.6" x="1994.9" y="1128.6" fill="#fff"/><rect width="319.7" height="22.6" x="1994.8" y="1198.5" fill="#fff" opacity=".5"/><rect width="271.4" height="22.6" x="1994.9" y="1198.5" fill="#fff"/><rect width="319.7" height="22.6" x="1994.8" y="1268.4" fill="#fff" opacity=".5"/><rect width="296.2" height="22.6" x="1994.9" y="1268.4" fill="#fff"/><rect width="319.7" height="22.6" x="1994.8" y="1338.3" fill="#fff" opacity=".5"/><path fill="#fff" d="M2116.8,1409h-212.9c-14.5,0-26.3,11.8-26.3,26.3c0,14.5,11.8,26.3,26.3,26.3h212.9
				c14.5,0,26.3-11.8,26.3-26.3C2143,1420.7,2131.3,1409,2116.8,1409z"/><path fill="#fff" d="M2288.2,1409h-103.6c-14.5,0-26.3,11.8-26.3,26.3c0,14.5,11.8,26.3,26.3,26.3h103.6
				c14.5,0,26.3-11.8,26.3-26.3C2314.5,1420.7,2302.8,1409,2288.2,1409z" opacity=".25"/><path fill="#fff" d="M2215.4 1439.8c-.8.6-1.6 1-2.5 1.3-.9.3-1.7.3-2.6.2-.9-.1-1.6-.5-2.2-1.1-.6 1.8-.9 3.5-1.1 5.2-.1.3-.2.6-.4.9-.4 1.1-1.1 1.8-2.4 2.1-1.2.3-2.3.3-3.3-.2-.5-.2-.9-.5-1.2-1-.3-.4-.5-.9-.5-1.5 1.4-4.8 2.7-8.6 4-11.7.3-.6.5-1.2.7-1.5.2-.4.3-.7.5-1 .1-.3.3-.5.4-.7.1-.2.2-.4.4-.7.4-.6.8-1.3 1.2-2.1.5-.8.9-1.4 1.2-1.8.3-.4.7-.7 1-1s.8-.6 1.2-.8c.4-.3 1-.6 1.7-1 .7-.4 1.4-.7 2.2-.8s1.5 0 2.2.2c1.5.5 2.6 1.5 3.2 3.1.6 1.5.7 3.4.3 5.9C2218.8 1435.6 2217.4 1438.2 2215.4 1439.8zM2209.2 1437.1c1.6-.4 2.8-1.4 3.4-3.2.5-1.5.6-3.2.3-5.1-.5.8-.9 1.6-1.2 2.4-.4.8-.7 1.6-1 2.2C2210 1435 2209.5 1436.2 2209.2 1437.1zM2222.5 1432.2c.5-.4 1-.6 1.5-.7.5-.1.9 0 1.2.2.3.2.4.5.3.9.4-.4.9-.7 1.6-1 .7-.3 1.3-.5 1.7-.7.4-.1.8-.2 1.1-.2.7 0 .8.4.6 1.1.3.1.6.3.7.7.2.4.2.8.1 1.3-.1.5-.4.9-.8 1.3-.4.4-1 .7-1.7.9-.7.2-1.3.5-1.8 1.1-.5.6-.9 1.3-1.2 2.1-.6 1.4-1.1 3.4-1.6 6-.2.9-.8 1.7-1.9 2.4-1.1.6-2.1.8-3 .5-1-.3-1.5-1-1.3-2.2 0-.9.3-2 .8-3.4.5-1.4.8-2.5 1.1-3.2.3-.7.4-1.3.5-1.7l1-3.7C2221.6 1433.1 2222 1432.6 2222.5 1432.2zM2234 1433.3c.3-.7.9-1.1 1.8-1.3.9-.2 1.8-.2 2.6.1.8.3 1.2.8 1.1 1.5-.2.7-.5 1.5-.8 2.5-.3 1-.6 2-.9 3.1-.8 2.7-1.3 4.6-1.4 5.7-.3 1.8-.8 2.8-1.5 2.9-.2 0-.4.1-.6.1-.4 0-.7.1-.8.4-.1.2-.3.4-.6.5-.3.1-.6.2-.9.1s-.7-.1-1-.2c-.3-.1-.6-.4-.9-.6-.6-.7-.7-1.6-.3-2.7.3-2.2 1.1-4.9 2.4-8.3C2232.8 1435.4 2233.4 1434.1 2234 1433.3zM2239.6 1428.8c-1 .2-1.8.1-2.4-.2-.6-.3-1-.7-1.1-1.1-.1-.4 0-.9.4-1.4.4-.6 1.1-1 2-1.2.4 0 .7-.1.9-.1.2 0 .4 0 .7.1.7.1 1.1.3 1.3.9.3.4.3.9.1 1.5C2241.2 1427.9 2240.6 1428.4 2239.6 1428.8zM2244.6 1433.3c1.3-.5 2.2-.5 2.7 0 .2.3.4.7.4 1.2v.2c.7-.9 2-1.6 3.8-2.1 1.9-.6 3.5-.8 4.8-.5 1.6.3 2.5 1.4 2.7 3.2.2 1.5-.2 3.4-1 5.8-.3.6-.5 1.1-.6 1.4-.1.4-.3.7-.4 1-.3.6-.7 1.2-1.2 2-.3.6-.8 1.1-1.5 1.4-.7.3-1.3.5-2 .6-.6 0-1.2-.1-1.6-.3-.4-.2-.5-.6-.4-1.2.5-1.2.8-2.4 1.1-3.4.3-1 .6-1.9.9-2.6.3-1 .3-1.6.1-1.9-.2-.2-.5-.2-.9.1-.4.2-.6.5-.8.8-.4.3-1 1.3-2 3.1-.3.5-.6 1-.8 1.5-.3.5-.5.9-.7 1.4-.2.4-.4.8-.6 1-.2.3-.3.5-.4.6-.1.1-.2.2-.3.2s-.2.1-.2.1c-.1 0-.1.2-.1.4-.1.5-.6.8-1.4 1-1.4.4-2.7.3-3.8-.2-.4-.2-.7-.4-.9-.7-.5-.9.3-4 2.4-9.3.7-1.9 1.2-3 1.4-3.3.5-.8.8-1.2 1-1.3C2244.1 1433.1 2244.3 1433.1 2244.6 1433.3zM2267.1 1423.9l0-.1.3-.3c.2-.5.5-.8.7-.9.1 0 .3-.1.5-.2.2-.1.5-.2.9-.4.1-.3.4-.4.9-.4.4 0 .9.2 1.3.4.4.2.8.6 1 1 .3.4.3.9.2 1.4-.1.5-.3.8-.3 1-.1.2-.2.4-.3.6-.1.2-.2.4-.3.7-.1.3-.3.6-.5 1l-1 2.1c-.1.3-.2.4-.3.4-.1 0-.1.1-.2.2.2 0 .3-.1.4-.1.1 0 .2 0 .4-.1.3 0 .6-.1 1-.1.2 0 .4.1.6.1h.4c.2 0 .5.1.9.2.3.1.6.4.7.7.1.3.1.6 0 1-.1.3-.2.6-.5.9-.2.3-.5.4-.9.4-1.7.5-3 .7-3.7.8l-.2.2v0c-.2.5-.4 1.1-.6 1.8-.2.7-.5 1.5-.7 2.4-.3.8-.5 1.7-.8 2.6-.3.9-.6 1.8-.9 2.6-1 2.8-1.6 4.3-2.1 4.6-.2.1-.3.1-.5.2-.2 0-.3.1-.3.1-.7 0-1.3-.2-1.7-.4-.5-.2-.8-.5-.9-.7-.2-.2-.2-.5-.1-.7.4-3.5 1.1-7.2 2.3-11.4-.4 0-.7 0-.8.1-.3.2-.7.3-1.1.3h0c-.3 0-.6-.2-.9-.4-.3-.3-.4-.6-.5-1-.1-.4 0-.7.2-1.1.2-.4.5-.7 1.1-.9.6-.2 1.1-.3 1.4-.4.6-.2 1.1-.4 1.4-.5.4-.1.6-.2.7-.2.1 0 .1-.1.1-.1.1 0 .2-.1.4-.1.1-.6.2-1.2.4-1.8.1-.6.3-1.2.4-1.8C2265.9 1426.1 2266.4 1424.9 2267.1 1423.9z"/><rect width="257.7" height="22.6" x="1994.9" y="1338.3" fill="#fff"/></g><g><rect width="89.5" height="22.6" x="1347.7" y="1347.3" fill="#fff"/><rect width="144.8" height="22.6" x="1639.7" y="1347.3" fill="#fff"/><rect width="145" height="22.6" x="1464.9" y="1347.3" fill="#fff" opacity=".5"/><rect width="146.9" height="22.6" x="1347.7" y="1393.1" fill="#fff" opacity=".5"/><rect width="262.2" height="22.6" x="1522.3" y="1393.1" fill="#fff"/><rect width="262.2" height="22.6" x="1347.7" y="1438.9" fill="#fff" opacity=".5"/></g><g><path fill="#30a0b2" d="M1422.9,2599c19.2,0,36.4-0.9,37.5,8.5c1.1,9.4,1.1,74.5-4.8,77.2c-5.9,2.6-132.1,0-144.5,0
						c-12.4,0-7.6-44.7,30.7-45.6l47.3-38.1L1422.9,2599z"/><path fill="#0f1f38" d="M1458.9,2673.4c0-0.1-55.7,2.6-86.8,2.4c-3.5,0-6.3-8.9-37.5-9.4c-21.6-0.6-28.9,6.2-29.6,7
						c-1.4,1.4-4.1,14.8,2,15.9c6.1,1.1,146.3,2.4,148.6,0C1460.3,2684.5,1458.9,2673.4,1458.9,2673.4z"/><path fill="#fda998" d="M1450.3,2531.3c0,3.9-3.1,63.1-4.1,79.1c-6.4,7.8-46.5,10.4-50.1,1.9c0-13.3-5.6-81-5.6-81H1450.3z"/><path fill="#30a0b2" d="M1436,2619.5c3-4.7,5.4-31.8-6.5-39.9c-12-8.1-30.7-7.2-35.1,0c-4.4,7.2-9.6,33.4-10.2,38.8
						C1383.4,2623.9,1427.9,2632.4,1436,2619.5z"/><path fill="#0f1f38" d="M1402.2,2659c-1.5-4.4-30.3-23.3-60.4-19.8c0,0,13.5-12.9,42.3-2.5
						C1405.4,2644.4,1402.2,2659,1402.2,2659z"/><path fill="#fff" d="M1395 2632.6c-5.4-3.1-32.9-4.8-26.8-8.5 6.1-3.7 26.6.7 28.1 5.4C1397.8 2634.3 1395 2632.6 1395 2632.6zM1403.5 2623.3c-5.4-3.1-32.9-4.8-26.8-8.5 6.1-3.7 26.6.7 28.1 5.4C1406.3 2625 1403.5 2623.3 1403.5 2623.3zM1412 2613.9c-5.4-3.1-32.9-4.8-26.8-8.5 6.1-3.7 26.6.7 28.1 5.4C1414.8 2615.6 1412 2613.9 1412 2613.9z"/><path fill="#da5638" d="M1649.7,1566.2c17.4-107.1-239.9-76.4-239.9-76.4l-28,1079.5l77.5,3.9
					C1459.3,2573.2,1566.8,2076.9,1649.7,1566.2z"/><path fill="#1b2d51" d="M1517.6,2030.8c4.7-11.1-73-32.1-84.8-18.3c-11.9,13.8,61.9,26.3,61.9,26.3s-42.3,3.8-42,16.2
					C1453,2067.4,1509.1,2050.8,1517.6,2030.8z"/><path fill="#30a0b2" d="M1724.4,2599c19.2,0,36.4-0.9,37.5,8.5c1.1,9.4,1.1,74.5-4.8,77.2c-5.9,2.6-132.1,0-144.5,0
						c-12.4,0-7.6-44.7,30.7-45.6l47.3-38.1L1724.4,2599z"/><path fill="#0f1f38" d="M1760.4,2673.4c0-0.1-55.7,2.6-86.8,2.4c-3.5,0-6.3-8.9-37.5-9.4c-21.6-0.6-28.9,6.2-29.6,7
						c-1.4,1.4-4.1,14.8,2,15.9c6.1,1.1,146.3,2.4,148.6,0C1761.7,2684.5,1760.4,2673.4,1760.4,2673.4z"/><path fill="#fda998" d="M1745.2,2531.3c0,3.9,3.4,63.1,2.5,79.1c-6.4,7.8-46.5,10.4-50.1,1.9c0-13.3-12.1-81-12.1-81H1745.2z"/><path fill="#30a0b2" d="M1737.4,2619.5c3-4.7,5.4-31.8-6.5-39.9c-12-8.1-30.7-7.2-35.1,0c-4.4,7.2-9.6,33.4-10.2,38.8
						C1684.9,2623.9,1729.4,2632.4,1737.4,2619.5z"/><path fill="#0f1f38" d="M1703.6,2659c-1.5-4.4-30.3-23.3-60.4-19.8c0,0,13.5-12.9,42.3-2.5
						C1706.8,2644.4,1703.6,2659,1703.6,2659z"/><path fill="#fff" d="M1696.5 2632.6c-5.4-3.1-32.9-4.8-26.8-8.5 6.1-3.7 26.6.7 28.1 5.4C1699.3 2634.3 1696.5 2632.6 1696.5 2632.6zM1705 2623.3c-5.4-3.1-32.9-4.8-26.8-8.5 6.1-3.7 26.6.7 28.1 5.4C1707.8 2625 1705 2623.3 1705 2623.3zM1713.5 2613.9c-5.4-3.1-32.9-4.8-26.8-8.5 6.1-3.7 26.6.7 28.1 5.4C1716.3 2615.6 1713.5 2613.9 1713.5 2613.9z"/><path fill="#da5638" d="M1758.7,1528.4c-1.6-108.5-267.2,10.1-267.2,10.1l64.8,200.5l123.2,825.3l81-4.2
					C1760.6,2560,1766.1,2045.8,1758.7,1528.4z"/><path fill="#1b2d51" d="M1639.8 2018.7c-2.2-11.8 78.1-16 86.8 0 8.7 16-66.1 12.7-66.1 12.7s40.6 12.7 37.6 24.7C1695.2 2068.1 1643.8 2040.1 1639.8 2018.7zM1516.1 1645.4c0 0 66 106.5 63.3 109.4-2.7 2.8 11.7 230.6 11.7 230.6l-40.4-220.7L1516.1 1645.4z"/><g><path fill="#1b2d51" d="M1568.3,782.1c0,0,29.3-33.2,61-0.8c31.7,32.4,43.3,43.7,73.9,49.5c30.6,5.9,46.2,6.3,50.3,26.5
				c4.1,20.3,47-8,73,35.3c26,43.3,1.7,62,30.2,76.9c28.5,14.9-24.3,74.1-112.2,86.1c-87.9,12-42,102.6-99.5,89.2
				c-57.5-13.4-38.1-51.4-56.4-91.3c-18.3-39.9-42.1-22.6-39.1-68.4c3-45.8,11-36.4-20.1-75.7c-31.1-39.3-41.5-83.7-26.3-101.1
				C1517.3,792,1544.5,760.8,1568.3,782.1z"/><path fill="#febb46" d="M1508.5,1140.4l-10.6-81.1l-28.9,5.3c0,0-61.2,64.2-177.7,243.8c-13.1,20.2,26,81.7,69.7,75
							c28.8-18.3,47-47.3,72.2-79.8L1508.5,1140.4z"/><polygon fill="#1b2d51" points="1444.4 1244.9 1376.2 1373 1475.9 1298.6"/><path fill="#febb46" d="M1649.7,1057.1l43.8,10.4l123.2,199.9c0,0,163.1,126.7,172.5,148.9c40.1,94.4-149.3,51.9-149.3,51.9
						l-133.7-89.3l-18.9-136.5L1649.7,1057.1z"/><polygon fill="#1b2d51" points="1716.2 1284.6 1703 1324.5 1714.9 1384.6 1769.2 1421.4"/><path fill="#febb46" d="M1393,1500.8c55.5,53.3,100.7,83.5,188.4,83.5c71.8,0,137.7-22.3,189.7-59.6
						c-26.9-86.6-53.3-144-64.2-209.2c-2.6-15.5,13.8-58.7,10.1-73.8c-0.6-2.5-20.1-40-20.7-42.5c-26.6-107.2-46.6-142.3-46.6-142.3
						s-149.3-7.5-154.9,3.2c-6.6,12.5-22,66.9-41.8,148.9c-2.7,10.9-18.8,17.2-21.1,29.3c-4.9,26.5,16.2,78.5,9.9,106.4
						C1428.8,1401.2,1413.6,1437.8,1393,1500.8z"/><path fill="#1b2d51" d="M1684.5 1154.7l24.3 54.5c0 0 23.2 22.6 18.7 33.1-3.6 8.4-8.3 55.7-13.4 88.8 8.9 73.2 56.3 147.6 45.9 158.1-10.9 11-62.4-114.4-57.1-164.6 0 0 10-82.2 10-82.2l-15.6-24.6L1684.5 1154.7zM1467.1 1154.7l-24.3 54.5c0 0-23.2 22.6-18.7 33.1 3.6 8.4 8.3 55.7 13.4 88.8-8.9 73.2-56.3 147.6-45.9 158.1 10.9 11 62.4-114.4 57.1-164.6 0 0-10-82.2-10-82.2l15.6-24.6L1467.1 1154.7zM1514.2 1082.3c0 0-7.5 50.1 29.3 60.2 49.2 13.5 82.9-43.7 89.2-72.4C1638.9 1041.5 1542.8 1048.3 1514.2 1082.3z"/><path fill="#ffafa9" d="M1638.9,1056.3c0,0-77.6-8.2-119.5-1.1c-12.9,10-1.3,65.5,33.7,68.1
									C1614,1127.8,1638.9,1056.3,1638.9,1056.3z"/><path fill="#ffafa9" d="M1610.4,1060.7c0,0,16.6-99.2,15.2-119.9c-0.4-6.2-66.9,34.3-66.9,34.3s-16.9,54.9-18.1,84.5
									C1572.1,1089.1,1610.4,1060.7,1610.4,1060.7z"/><path fill="#1b2d51" d="M1543.5,1037c54.5-2,67.5-63.8,70.5-94.3c-13.7,5.1-55.2,32.4-55.2,32.4S1548.6,1008.3,1543.5,1037z"/><path fill="#ffafa9" d="M1506.9,983.2c48.7,59.8,115.7-35.3,118.3-34.9c2.7,0.5,5,2.1,7.5,2.9c10,3.2,18.4-12.8,22.4-22.5
									c10.1-24.9-4-28-12.9-24.9c-1.9,0.6-3.5,1.6-4.6,2.6c-0.3,0.2-0.5,0.4-0.7,0.7c-0.2,0-0.3-0.2-0.3-0.5
									c-8.7,0.8-16.4-14.2-10.8-29.1c7.4-19.6-20.6-19.5-22.2-30.7c-4.1-28.9-30.8-11.7-52.2-2.3c-10.2,4.5-18.3,1.8-23.9-2.1
									c-0.8,1.1-1.7,2.1-2.5,3.2C1502.7,874.1,1486.5,958.1,1506.9,983.2z"/><path fill="#1b2d51" d="M1646.2 910.9l-3.2 9.6h7.4l-7.1 3.9c-2.7 3.5-2.3 9-2.3 9C1635.4 925.7 1642.2 914.4 1646.2 910.9zM1637.6 906.5c1.6-.3 3.1-1.2 4.6-2.6C1640.4 904.5 1638.7 905.4 1637.6 906.5zM1553.2 958.6c-2.3 10.2-16.6 12.8-26.4 9.5-23.1-7.9-15.2-27.8 1.3-19.1 0 0 0 0 0 0 2.3 1.9 3.4 4 13.2 2.5C1549.3 950.2 1554.5 952.8 1553.2 958.6zM1546.4 861.7c-1.2 3.4-14.7 1.9-24.9-1.5-10.1-3.5-13-7.6-11.9-11 1.2-3.4 6-4.9 16.1-1.4C1535.9 851.2 1547.5 858.3 1546.4 861.7zM1572.9 867c-.4 3.4 16.8 8.2 26.9 9.4 10.1 1.2 14.2-1.1 14.6-4.5.4-3.4-3.1-6.7-13.2-7.9C1591.2 862.8 1573.3 863.6 1572.9 867zM1542.2 921.1c.7.1 1.4.2 2.2.1 4.7-.4 7.5-5 7.6-5.2.3-.6.4-1.3.2-1.9-5.2-12.9-.2-28.1-.2-28.2.4-1.1-.2-2.3-1.3-2.7-1.1-.4-2.3.2-2.7 1.3-.2.7-5.3 16-.2 30.1-.8 1-2.2 2.3-3.8 2.4-1.5.1-3.1-.8-4.8-2.7-.8-.9-2.1-1-3-.2-.9.8-1 2.1-.2 3C1538 919.3 1540.1 920.6 1542.2 921.1zM1581.4 887.7c.2-.7.5-1.4.9-2 .4.5.8.8 1.4 1 1.7.6 3.5-.6 4.1-2.7.2-.6.2-1.2.1-1.8.5 0 1 0 1.5.2 3.3 1 5.1 5 3.9 8.9-1.1 4-4.7 6.3-8 5.3C1582 895.7 1580.3 891.7 1581.4 887.7zM1513.2 877.3c.2-.7.5-1.4.9-2 .4.5.8.8 1.4 1 1.7.6 3.5-.6 4.1-2.7.2-.6.2-1.2.1-1.8.5 0 1 0 1.5.2 3.3 1 5.1 5 3.9 8.9-1.1 4-4.7 6.3-8 5.3C1513.8 885.2 1512.1 881.2 1513.2 877.3z"/><path fill="#fff" d="M1487.3,869.5c-4.1,17.9,7.1,35.7,25,39.8c15.1,3.5,30.1-4.1,36.9-17.3c0.4,14.8,10.6,28.1,25.7,31.6
									c17.9,4.1,35.8-7.1,39.8-25c4.1-17.9-7.2-35.7-25.1-39.8c-15.1-3.5-30.1,4.1-36.9,17.3c-0.4-14.8-10.6-28.1-25.8-31.6
									C1509.2,840.4,1491.4,851.6,1487.3,869.5z M1557,885.4c3.2-14,17.2-22.7,31.1-19.5c14,3.2,22.7,17.1,19.5,31.1
									c-3.2,14-17.1,22.7-31.1,19.5C1562.6,913.3,1553.8,899.4,1557,885.4z M1494.4,871.1c3.2-14,17.2-22.7,31.1-19.5
									c14,3.2,22.7,17.1,19.5,31.1c-3.2,14-17.1,22.7-31.1,19.5C1500,899,1491.2,885.1,1494.4,871.1z"/></g><g><polygon fill="#ffafa9" points="1185.6 1082.3 1161.3 1048.1 1141.9 1029.3 1129 987.3 1137.4 985.4 1140 992.8 1139 972.4 1150 970.5 1153.9 985.7 1155.5 963.4 1163.9 961.8 1170.7 981.5 1171.4 956.9 1180.4 954.4 1212.9 1070.1"/><path fill="#febb46" d="M931,802.5c0,37.6,10.4,73.1,28.5,103.3c35.1,58.9,99.4,98.3,173,98.3c73.4,0,137.7-39.4,172.8-98.1
					c18.3-30.3,28.8-65.7,28.8-103.5c0-111.4-90.4-201.5-201.5-201.5C1021.2,600.9,931,691,931,802.5z"/><path fill="#1b2d51" d="M1160.3,561.2c0,0,45.8-7,49.6,30c3.8,37,5.5,50.1,26.2,69.3c20.7,19.1,33,27.2,22.6,42.5
					c-10.3,15.3,43.1,18.3,35,59.5c-8.2,41.2-40.2,41.3-27.3,65.3c12.9,24-69.3,36.2-148,0.1c-78.7-36.1-102.6,45.9-139.8,8.5
					c-37.2-37.5,3.8-52.6,15.9-87.8c12.1-35.2-18.7-35.8,14.4-64.2c33.1-28.4,33.3-18.3,34.6-59.5c1.3-41.2,22.7-75.4,46.6-79.1
					C1112.7,542.2,1155.5,535.4,1160.3,561.2z"/><path fill="#30a0b2" d="M1055,784.4h155.1c41.7,35,75.7,76.5,105.7,102c-3,6.8-6.5,13.3-10.3,19.6c-35.1,58.6-99.4,98.1-172.8,98.1
					c-73.6,0-138-39.5-173-98.3c-3.7-6.3-7.2-12.7-10.2-19.4C985.4,856.4,1020.1,814.9,1055,784.4z"/><path fill="#fda998" d="M1085.1 660.6c0 0-17.3-13.3-25.2 2.1-7.9 15.4 5.2 41.9 21.9 31.2L1085.1 660.6zM1183.6 660.6c0 0 17.3-13.3 25.2 2.1 7.9 15.4-5.2 41.9-21.9 31.2L1183.6 660.6z"/><path fill="#1b2d51" d="M1061.7 673.5c-.1-1-.1-2 .1-2.9.7-4.2 3.7-7.2 3.8-7.3.4-.4 1.1-.4 1.5 0 .4.4.4 1.1 0 1.5-.1.1-1.8 1.8-2.7 4.2 1.6-.8 3-1.1 3-1.1.6-.1 1.1.2 1.2.8.1.5-.2 1.1-.8 1.2-.2 0-2.1.5-4.1 1.8-.1 1.8.3 3.8 1.7 5.8.3.5.2 1.1-.2 1.4-.1.1-.2.1-.3.2-.4.1-.8 0-1.1-.4C1062.5 676.9 1061.9 675.2 1061.7 673.5zM1206.5 673.5c.1-1 .1-2-.1-2.9-.7-4.2-3.7-7.2-3.8-7.3-.4-.4-1.1-.4-1.5 0-.4.4-.4 1.1 0 1.5.1.1 1.8 1.8 2.7 4.2-1.6-.8-3-1.1-3-1.1-.6-.1-1.1.2-1.2.8-.1.5.2 1.1.8 1.2.2 0 2.1.5 4.1 1.8.1 1.8-.3 3.8-1.7 5.8-.3.5-.2 1.1.2 1.4.1.1.2.1.3.2.4.1.8 0 1.1-.4C1205.7 676.9 1206.4 675.2 1206.5 673.5z"/><path fill="#fda998" d="M1106,787c0,0,10,9.9,28.6,9.9c18.6,0,29.8-9.4,29.8-9.4s-3.3-17.6-5.7-30.1c-1.3-7.3-2.4-13.2-2.6-14.2
							H1113l-3,18.6L1106,787z"/><path fill="#1b2d51" d="M1109.9,762.3c7,5.3,16.3,10.9,24.2,10.8c9.2-0.2,18.3-10.2,24.1-18.2c-1.1-6.1-1.9-10.8-2.1-11.6h-43
							l-3,18.5L1109.9,762.3z"/><path fill="#fda998" d="M1195.4,625.7c0.2,15.6-0.8,34.7-2.8,54c-4.4,40.5-21.1,82.1-58.5,82.1c-44.8,0-55.9-52.7-60.5-83.5
							c-2.6-17.1-3.2-37-1.9-52.6c0,0,20.9,15.8,34.3-5.2C1156.6,655.2,1195.4,625.7,1195.4,625.7z"/><path fill="#1b2d51" d="M1150.4 725.7c0 8.3-10.7 12.9-18.9 12.1-19.3-2-16.7-18.9-2.4-15.1 0 0 0 0 0 0 2.1 1 3.3 2.5 10.7-.4C1146 719.8 1150.4 720.9 1150.4 725.7zM1124 650.7c-.4 3.4-13 4.8-22.9 3.8-9.9-1.1-13.4-4.2-13.1-7.6.4-3.4 4.4-5.7 14.4-4.7C1112.4 643.3 1124.4 647.4 1124 650.7zM1146.3 650.7c.4 3.4 13 4.8 22.9 3.8 9.9-1.1 13.4-4.2 13.1-7.6-.4-3.4-4.4-5.7-14.4-4.7C1158 643.3 1145.9 647.4 1146.3 650.7zM1135.2 698.4c.6 0 1.2-.1 1.7-.3 3.6-1.2 5-5.3 5-5.4.2-.5.1-1.1-.2-1.5-6.4-9.1-5.2-21.8-5.2-21.9.1-.9-.6-1.8-1.5-1.9-.9-.1-1.8.6-1.9 1.5-.1.6-1.3 13.4 5.2 23.4-.5.9-1.3 2.2-2.5 2.6-1.1.4-2.5 0-4.2-1.2-.8-.5-1.8-.4-2.4.4-.5.8-.4 1.8.4 2.4C1131.6 697.8 1133.5 698.5 1135.2 698.4zM1156.6 667.6c.1-.8.2-1.6.5-2.3.5.4 1.1.6 1.6.7 1.8.2 3.4-1.5 3.5-3.7.1-.6-.1-1.3-.3-1.8.5-.2 1.1-.2 1.6-.2 3.6.3 6.3 3.9 6 8.2-.2 4.3-3.3 7.5-7 7.3C1159.1 675.5 1156.4 671.8 1156.6 667.6zM1097.9 667.6c.1-.8.2-1.6.5-2.3.5.4 1.1.6 1.6.7 1.8.2 3.4-1.5 3.5-3.7.1-.6-.1-1.3-.3-1.8.5-.2 1.1-.2 1.6-.2 3.6.3 6.3 3.9 6 8.2-.2 4.3-3.3 7.5-7 7.3C1100.3 675.5 1097.7 671.8 1097.9 667.6z"/><path fill="#fff" d="M1083.4,668.1c0,14.6,11.9,26.5,26.5,26.5c12.4,0,22.7-8.5,25.6-20c2.9,11.5,13.2,20,25.6,20
					c14.6,0,26.6-11.9,26.6-26.5c0-14.6-11.9-26.5-26.6-26.5c-12.4,0-22.7,8.5-25.6,20c-2.9-11.5-13.3-20-25.6-20
					C1095.2,641.6,1083.4,653.4,1083.4,668.1z M1140.4,668.1c0-11.5,9.3-20.7,20.7-20.7c11.5,0,20.7,9.3,20.7,20.7
					c0,11.5-9.3,20.7-20.7,20.7C1149.7,688.8,1140.4,679.5,1140.4,668.1z M1089.2,668.1c0-11.5,9.3-20.7,20.7-20.7
					c11.5,0,20.7,9.3,20.7,20.7c0,11.5-9.3,20.7-20.7,20.7C1098.5,688.8,1089.2,679.5,1089.2,668.1z"/><polygon fill="#1b2d51" points="1217.4 901.3 1222.5 982.8 1243.1 971.6 1260.7 957.9 1230.6 949.2"/><polygon fill="#1b2d51" points="1050.3 901.3 1033.4 978.4 1016.4 968.1 999 953.3 1026.1 949.2"/><path fill="#ffafa9" d="M1223.7,1065.8l-16.8-33.8c0,0,28.4-75.7,27.8-80.4c-0.6-4.8-14.2,0-14.2,0l-17.5,30.2
				c0,0-27.8,18.8-28.4,46.6c-0.6,27.8,16.2,50.5,16.2,50.5L1223.7,1065.8z"/><path fill="#febb46" d="M1356.8,1342.9c0,0-28.9,18.1-42,8.4c-65.4-48.1-155.7-297.3-155.7-297.3l54.7-35.6l150.4,210.2
				C1364.2,1228.6,1407.8,1297,1356.8,1342.9z"/><path fill="#1b2d51" d="M1342.5,1198.2c0,0,23.9,119.1,8.4,76.7C1335.3,1232.6,1342.5,1198.2,1342.5,1198.2z"/></g><g><polygon fill="#30a0b2" points="1919.1 2536.7 1769.2 2536.7 1799.8 1339.4 1949.7 1339.4"/><rect width="149.9" height="132.1" x="1799.8" y="1207.3" fill="#1b2d51"/><path fill="#30a0b2" d="M1949.7,1339.4c0,12.2-33.5,22.1-74.9,22.1c-41.4,0-74.9-9.9-74.9-22.1c0-12.2,33.5-22.1,74.9-22.1
				C1916.1,1317.2,1949.7,1327.1,1949.7,1339.4z"/><path fill="#1b2d51" d="M1949.9 1332l-30.8 1204.7-59.6-5.4c37.9-168.3 48.8-649.7 48.8-649.7-39.7-15.4-48.8-57.2-48.8-57.2l57.7 2.3c0 0 14.3-340.9-13.6-520.6C1939.7 1301.9 1949.9 1332 1949.9 1332zM1949.7 1207.3c0 12.2-33.5 22.1-74.9 22.1-41.4 0-74.9-9.9-74.9-22.1 0-12.2 33.5-22.1 74.9-22.1C1916.1 1185.2 1949.7 1195.1 1949.7 1207.3z"/><path fill="#fda998" d="M1919,2536.5c0,2.2-0.9,3.8-2.5,5.7l-45.7,95.5c-6.6-1.9-15.8-3.8-26.5-4.1c-11.3-0.6-19.9,2.8-25.5,6
				l-47-97.4c-1.6-1.9-2.5-3.5-2.5-5.7c0-12,33.4-22.1,75-22.1C1885.6,2514.5,1919,2524.6,1919,2536.5z"/><path fill="#1b2d51" d="M1870.8,2637.7l-26.5,54.9l-25.5-53c5.7-3.2,14.2-6.6,25.5-6C1855,2634,1864.2,2635.9,1870.8,2637.7z"/><path fill="#fda998" d="M1925.1,1402.9c0,0,0.1,0,0.1,0c0.3-0.1,0.6-0.2,0.6-0.2l0,0c1.6-0.5,3.4-1,5.7-1.2
					c8.1-0.7,16.5-2.3,23.3,0.3c32.9,12.8,35.7,82.4,24,97.9c-18.2,24.1-62.9,32.2-67.2,30.3c-4.3-1.8-12.3-16.8-12.3-16.8l10.6-8.5
					c0,0-14.1-2.2-15.5-3c-1.3-0.8-9.9-18.7-8.9-19.6c1-0.8,15.6-7.5,15.6-7.5s-20.3-2.7-21-2.1c-0.6,0.5-5.1-18.2-5.1-18.2l18.3-11
					c0,0-21.5,1-24.4-0.7c-2.9-1.6-2.9-18.4-2.7-19.3C1866.6,1422.7,1918.1,1405.3,1925.1,1402.9z"/><path fill="#1b2d51" d="M1930.8 1430.8c.2 1.6-9.9 4.3-22.1 9.1-12.3 4.6-22.3 8.4-22.9 6.9-.6-1.5 8.6-7.8 21.1-12.5C1919.4 1429.3 1930.6 1429.1 1930.8 1430.8zM1938.3 1459.7c.3 1.5-8.7 5.2-19.8 9.9-11.1 4.6-20.4 7.7-21 6.1-.5-1.5 7.9-7.1 19.2-11.7C1928.1 1459.2 1938 1458 1938.3 1459.7zM1938.6 1494c.6 1.5-5.7 5.3-14.1 8.5-8.4 3.2-15.6 4.5-16.2 3-.6-1.5 5.7-5.3 14.1-8.5C1930.8 1493.8 1938 1492.4 1938.6 1494z"/></g></g><g><path fill="#febb46" fill-rule="evenodd" d="M2156.3,1602.7h-170.8c0,0,24.4,184.4-96.6,196.4c0,0,9.2,53.6,159.4,45.5
			C2188.1,1837.1,2156.3,1602.7,2156.3,1602.7z" clip-rule="evenodd"/><path fill="#da5638" fill-rule="evenodd" d="M1962.4,1772.8c0,0-16.3,61.5,85.8,71.9c0,0-129.3,10.4-161.7-19.4c-32.3-29.8-39.7-61.3-39.7-61.3
			S1937.6,1799.7,1962.4,1772.8z" clip-rule="evenodd"/><path fill="#fff" d="M2097.7,1647.5l36.6,0.4c2,0,3.8,1.6,3.8,3.6c0.1,2.2-1.7,3.9-3.8,3.9l-36.7-0.4c-2.1,0-3.8-1.7-3.7-3.8l0,0
				C2093.9,1649.2,2095.7,1647.5,2097.7,1647.5z" opacity=".5"/><path fill="#fff" d="M2010 1646.5l67.3.8c2.1 0 3.8 1.7 3.7 3.8l0 0c0 2.1-1.7 3.8-3.8 3.7l-67.4-.8c-2.1 0-3.9-1.8-3.7-4C2006.2 1648.1 2007.9 1646.5 2010 1646.5zM2005.1 1751.4l67.3.8c2.1 0 3.8 1.7 3.7 3.8l0 0c0 2.1-1.7 3.8-3.8 3.7l-67.4-.8c-2.1 0-3.9-1.8-3.7-4C2001.3 1752.9 2003.1 1751.4 2005.1 1751.4z"/><path fill="#fff" d="M2005,1681.6l124.5,1.4c2.1,0,3.8,1.7,3.7,3.8c0,2.1-1.7,3.8-3.8,3.7l-124.5-1.4c-2.1,0-3.8-1.7-3.7-3.8
			C2001.2,1683.2,2002.9,1681.6,2005,1681.6z" opacity=".5"/><path fill="#fff" d="M1995.8,1713.5l121.2,1.4c2,0,3.7,1.7,3.6,3.7c0,2-1.7,3.7-3.7,3.6l-121.2-1.4c-2,0-3.7-1.7-3.6-3.7
			C1992.1,1715.1,1993.8,1713.5,1995.8,1713.5z"/><path fill="#febb46" d="M2133.3,2111.9c-37.1,0-67.1,30.4-67.1,68c0,37.6,30.1,68,67.1,68c37.1,0,67.1-30.4,67.1-68
			C2200.4,2142.4,2170.3,2111.9,2133.3,2111.9z M2133.3,2216.9c-20.2,0-36.5-16.5-36.5-36.9c0-20.4,16.3-36.9,36.5-36.9
			c20.1,0,36.5,16.5,36.5,36.9C2169.8,2200.3,2153.4,2216.9,2133.3,2216.9z"/><path fill="#da5638" d="M2104.8 2173.6c1.2-.7 14.1-12.5 14.1-12.5l14.9 16.8 35.7-33.2 13.8 11.7-49.1 47.4L2104.8 2173.6zM1189.3 1788.2l-44.7-.1-.2 85.2 44.7.1c7.3 0 13.2-5.9 13.2-13.1l.2-58.9C1202.4 1794.1 1196.5 1788.2 1189.3 1788.2z"/><path fill="#febb46" d="M1051,1815.3h0.4l0-14.7c0-7.8,6.4-14.1,14.1-14.1l39.6,0.1c0,0-16.1-22.5-16-36.9c0-12.9,0.7-29.9,19.7-29.9
			c0,0,6.9,4.3,6.8,23.6c0,17.9,36.7,44.5,36.7,44.5l-0.3,88.1c0,0-8.1,7.5-20.8,7.4l-57.3-0.2c-8.1,0-14.7-6.6-14.6-14.7l0-8.9
			c-4.8,0-8.6-3.9-8.6-8.7l0-10.4c-2.9,0-5.2-2.3-5.2-5.2l0-15C1045.8,1817.6,1048.1,1815.3,1051,1815.3z"/><polygon fill="#febb46" points="2482.3 1095.1 2522.7 1108.2 2526.2 1163.6 2651.9 1065.9"/><polygon fill="#febb46" points="2551.1 1123.2 2613.5 1150 2651.9 1065.9"/><polygon fill="#da5638" points="2522.7 1108.2 2526 1160 2526.2 1163.6 2551.1 1123.2 2651.9 1065.9"/><path fill="#febb46" d="M2092.8,1537.9c-0.2-0.2-4.5-5.8-11-15.4l5.8-3.9c6.3,9.5,10.6,15,10.7,15.1L2092.8,1537.9z M2071.7,1506.6
			c-3-4.9-6.2-10.4-9.5-16.2l6.1-3.4c3.2,5.8,6.4,11.1,9.4,16L2071.7,1506.6z M2053.4,1473.7c-2.7-5.4-5.5-11.1-8.1-17l6.4-2.8
			c2.6,5.8,5.2,11.3,7.9,16.7L2053.4,1473.7z M2038,1439.4c-2.3-6.1-4.4-12-6.3-17.8l6.7-2.1c1.8,5.6,3.8,11.5,6.1,17.4L2038,1439.4
			z M2026.7,1403.4c-1.5-6.3-2.7-12.5-3.7-18.6l6.9-1.1c0.9,5.9,2.1,11.9,3.6,18L2026.7,1403.4z M2028.1,1365.5l-7,0.3
			c-0.3-6.5-0.3-12.9,0.1-19l7,0.5C2027.8,1353.2,2027.8,1359.3,2028.1,1365.5z M2030.7,1329.4l-6.8-1.5c1.4-6.4,3.2-12.5,5.4-18.4
			l6.5,2.5C2033.7,1317.5,2032,1323.4,2030.7,1329.4z M2043.7,1295.8l-6-3.6c3.2-5.4,6.9-10.7,11.1-15.6l5.4,4.5
			C2050.2,1285.8,2046.7,1290.7,2043.7,1295.8z M2066.7,1268.2l-4.6-5.2c4.6-4.1,9.7-8,15-11.7l3.9,5.8
			C2076,1260.5,2071.1,1264.3,2066.7,1268.2z M2096.7,1247.7l-3.3-6.2c5.4-2.9,11.1-5.6,17.1-8.1l2.7,6.4
			C2107.5,1242.2,2101.9,1244.9,2096.7,1247.7z M2407,1211c-5.9,0.6-12.2,1-18.7,1.4l-0.4-7c6.4-0.4,12.6-0.8,18.5-1.4L2407,1211z
			 M2425.7,1208.8l-1-6.9c6.5-0.9,12.5-1.9,18.2-3l1.3,6.9C2438.5,1206.9,2432.3,1207.9,2425.7,1208.8z M2369.6,1213.1
			c-6,0.1-12.3,0.2-18.7,0.2l0-7c6.4,0,12.6-0.1,18.5-0.2L2369.6,1213.1z M2462.7,1201.5l-1.8-6.8c6.1-1.6,12-3.5,17.5-5.4l2.4,6.6
			C2475.1,1197.9,2469,1199.8,2462.7,1201.5z M2332.1,1213.1l-6.9-0.2c-4-0.1-7.9-0.2-11.7-0.3l0.2-7c3.9,0.1,7.8,0.2,11.8,0.3
			l6.8,0.2L2332.1,1213.1z M2130.4,1233.3l-2.2-6.6c5.7-1.9,11.7-3.8,18-5.5l1.8,6.8C2141.9,1229.6,2136,1231.4,2130.4,1233.3z
			 M2294.9,1212.3c-6.3,0-12.5,0-18.6,0.1l-0.1-7c6.1-0.1,12.3-0.1,18.7-0.1L2294.9,1212.3z M2498.2,1188.4l-3.2-6.2
			c5.7-2.9,10.9-6.1,15.3-9.4l4.2,5.6C2509.8,1181.9,2504.3,1185.3,2498.2,1188.4z M2166,1223.7l-1.5-6.8c5.9-1.3,12.1-2.4,18.5-3.5
			l1.2,6.9C2177.8,1221.2,2171.8,1222.4,2166,1223.7z M2257.8,1212.9c-6.3,0.3-12.5,0.6-18.5,1l-0.5-7c6.1-0.4,12.3-0.7,18.7-1
			L2257.8,1212.9z M2202.4,1217.5l-0.9-6.9c6-0.8,12.3-1.5,18.6-2.1l0.7,7C2214.5,1216,2208.3,1216.7,2202.4,1217.5z"/><g><polygon fill="#febb46" points="517.7 336.5 477.3 349.6 473.8 405 348.1 307.4"/><polygon fill="#febb46" points="448.9 364.6 386.5 391.4 348.1 307.4"/><polygon fill="#da5638" points="477.3 349.6 474 401.4 473.8 405 448.9 364.6 348.1 307.4"/><path fill="#febb46" d="M964.2,553.5l6.5-2.5c2.3,5.8,4.1,12,5.4,18.4l-6.8,1.5C968,564.8,966.3,559,964.2,553.5z M945.9,522.6
			l5.4-4.5c4.1,5,7.9,10.2,11.1,15.6l-6,3.6C953.3,532.2,949.8,527.2,945.9,522.6z M918.9,498.5l3.9-5.8c5.4,3.7,10.4,7.6,15,11.7
			l-4.6,5.2C928.9,505.7,924,502,918.9,498.5z M886.7,481.2l2.7-6.4c6,2.5,11.7,5.2,17.1,8.1l-3.3,6.2
			C898.1,486.3,892.5,483.7,886.7,481.2z M593.6,445.5c5.9,0.6,12,1,18.5,1.4l-0.4,7c-6.5-0.4-12.8-0.8-18.7-1.4L593.6,445.5z
			 M555.7,447.2l1.3-6.9c5.7,1.1,11.7,2.1,18.2,3l-1,6.9C567.7,449.3,561.5,448.3,555.7,447.2z M630.6,447.6
			c6,0.1,12.2,0.2,18.5,0.2l0,7c-6.5,0-12.7-0.1-18.7-0.2L630.6,447.6z M519.3,437.3l2.4-6.6c5.5,2,11.4,3.8,17.5,5.4l-1.8,6.8
			C531,441.3,524.9,439.4,519.3,437.3z M667.7,447.5l6.8-0.2c4-0.1,7.9-0.2,11.8-0.3l0.2,7c-3.9,0.1-7.8,0.2-11.7,0.3l-6.9,0.2
			L667.7,447.5z M852,469.4l1.8-6.8c6.3,1.7,12.3,3.5,18,5.5l-2.2,6.6C864,472.9,858.1,471.1,852,469.4z M705,446.8
			c6.4,0,12.6,0,18.7,0.1l-0.1,7c-6.1-0.1-12.2-0.1-18.6-0.1L705,446.8z M485.4,419.7l4.2-5.6c4.4,3.4,9.6,6.5,15.3,9.4l-3.2,6.2
			C495.7,426.7,490.2,423.3,485.4,419.7z M815.9,461.6l1.2-6.9c6.4,1.1,12.5,2.3,18.5,3.5l-1.5,6.8
			C828.2,463.8,822.2,462.7,815.9,461.6z M742.5,447.4c6.4,0.2,12.6,0.6,18.7,1l-0.5,7c-6-0.4-12.2-0.7-18.5-1L742.5,447.4z
			 M779.2,456.9l0.7-7c6.4,0.6,12.6,1.3,18.6,2.1l-0.9,6.9C791.7,458.1,785.5,457.4,779.2,456.9z"/></g><g><path fill="#febb46" d="M793.4,1954c-11.6,52.7-22.9,106.4-33.8,161c-0.6,3.1-3.6,5-6.6,4.2c-82.6-22-162.1-55.3-236.2-99.2
			c-2.7-1.6-4.2-4.7-3.3-6.9c15.1-38.9,30.3-76.8,45.6-113.7c0.9-2.1,3.7-3,6.4-1.9c72.4,27.6,147.9,44.6,224.2,50.8
			C792.3,1948.4,794.1,1951,793.4,1954z"/><path fill="#da5638" d="M559.3 1898.7c27.3 30.5 55.5 62.1 85.3 94.8 2.7 3 6.2 5.3 10.2 6.5l0 0c3.9 1.3 8.1 1.4 12 .5 42.8-10.3 85.3-26.2 126.9-47.5-43.3 19.7-87.6 33.6-132 41.7-3.5.6-7.2-.5-9.7-3C619.7 1959.9 588.9 1928.9 559.3 1898.7zM760.9 2108.8c-34-34.8-65.8-68.6-96.1-101.4-2.8-3-6.3-5.2-10.2-6.5l0 0c-3.9-1.3-8.1-1.5-12-.8-42.7 8.3-85.4 11.2-127.3 8.5 43.4 4.9 87.9 4.1 132.4-2.6 3.5-.5 7.2.7 9.8 3.2C690 2041.8 724.4 2075 760.9 2108.8z"/></g><g><path fill="#febb46" d="M2511.5,584.2c16.2,42.7,33.1,85.9,50.7,129.6c1,2.5-0.2,5.2-2.7,6c-68.6,22.7-140.3,36-213.1,39.2
			c-2.7,0.1-5.2-1.4-5.6-3.3c-7.3-34.5-14.1-68.4-20.4-101.5c-0.4-1.9,1.3-3.8,3.6-4.3c64-14,125.4-37,182.1-67.9
			C2508.2,580.7,2510.6,581.7,2511.5,584.2z"/><path fill="#da5638" d="M2320.3 653.5c33.4 8.9 68 18.2 104.3 27.6 3.3.9 6.9.8 10.2-.1l0 0c3.4-.9 6.4-2.7 8.7-5.2 25.5-27.1 48.3-58 67.8-92.4-21.5 34-46.4 64.4-74 90.7-2.2 2.1-5.3 3-8.3 2.4C2391.3 668.8 2355.2 661.1 2320.3 653.5zM2560.2 708.8c-40.1-8.9-78.4-18-115-27.2-3.3-.8-6.9-.8-10.2.1l0 0c-3.4.9-6.4 2.7-8.8 5-26.4 25.7-55.3 47.5-86.2 65 33-16.6 64.1-37.8 92.4-63.2 2.2-2 5.4-2.9 8.4-2.2C2479 694.1 2518.7 701.7 2560.2 708.8z"/></g></g></svg>