<svg xmlns="http://www.w3.org/2000/svg" enable-background="new 0 0 3000 3000" viewBox="0 0 3000 3000"><path fill="#30a0b2" fill-rule="evenodd" d="M856.3 2612.4c-24.8-14.6-47.8-28.5-69.1-42.6-.4-12.7-.9-24.9-2.1-37.6-6.8-72.4-85.1-54.3-20.6 22.1-16.2-11.5-31.4-23.3-45.6-35.8 2.2-11.4 4.3-23 5.8-34.5 9.1-70.7-43.8-83.1-42.3-41 .4 11.3 11.6 41.4 21.4 61.6-19.5-18.9-37.1-39.8-53-63.8 6.6-12.8 13.3-25.5 20-38.2 32.4-61.6-30.7-85.9-34.6-31-.3 4.1 3.1 38.2 7.3 57.8-13.2-21.5-25.2-45.6-36.1-73 .4 0 .8-.3 1.3-.8 8.1-11.5 16.6-22 25.6-32.8 37.7-45.1-5.6-64.6-23.3-37.6-8.3 12.6-9.5 45.8-7.1 62-8.7-23.1-14-43.1-17.7-63 9.6-8.1 19.3-15.7 29.2-23.4 43.6-34 11.8-55.1-8.9-40-10.7 7.8-19.2 29.1-23.3 45.4-1.6-11.3-2.9-23-4.2-35.4 2.1-6.5 4.1-13.2 6-19.8 18-65-28.4-63.6-33.9-38.8-3.6 16.1 12.1 47.9 21.3 58.3 1.6 15.3 3.7 30.2 6.3 44.7-1.1-3.7-2.3-7.4-3.5-11.1-19.2-57.6-61.1-29.8-46.1-4.8 6.4 10.6 45.9 33.5 52.8 31.8 2.9 13.8 6.4 27.2 10.4 40.4-2.6-5-5.3-10-8.1-14.5-29.6-49-89.9 1.7-1.9 36 3.4 1.3 14.4 6.9 20.2 8.2 4.2 10.9 8.9 21.7 14.1 32.3-.7-1-1.4-2-2-2.9-38.4-53.4-89.4 6.2 7.8 48.2 4.1 1.8 24.7 13 25.8 9 9.9 14.4 20.8 28.6 32.9 42.6 2.1 2.4 4.3 4.8 6.4 7.1-60.3-49.2-74.7 2.5-42 21.8 14.8 8.7 66.4 14.1 74.7 9.8 15.3 13.2 31.4 25.2 48.1 36.6-11.1-4.8-22.6-9.3-30.6-10.7-49.9-8.9-60.4 65.9 52.5 27.2.8-.3 1.4-.5 2.1-.8 19.9 12.6 40.2 24.5 60.6 36.6 1.5.9 3.5.4 4.4-1.1C858.3 2615.3 857.8 2613.3 856.3 2612.4zM854.9 2378.1c-14.7-12.8-28.2-24.9-40.6-36.9 1.3-8.5 2.5-16.7 3.3-25.3 4.5-48.9-49.8-46.6-16.4 12.2-9.3-9.6-18-19.4-25.8-29.5 2.9-7.3 5.7-14.8 8.1-22.2 14.8-45.9-18.8-60.6-23-32.5-1.1 7.5 2.6 28.9 6.6 43.6-10.6-15-19.7-31-27.3-48.9 6-7.7 12-15.3 18-22.9 29.2-36.9-9.8-60.9-19.2-24.9-.7 2.7-2.7 25.8-2.3 39.3-6.1-15.9-11.1-33.4-14.9-53 .3 0 .6-.1.9-.4 6.8-6.6 13.7-12.5 21.1-18.6 30.7-25.3 4.3-43.6-10.8-27.9-7.1 7.3-12 29.3-12.4 40.4-2.9-16.4-4-30.4-4-44 7.4-4.2 14.8-8 22.3-11.9 33.2-17.2 14.7-35.1-1-27.7-8.1 3.9-16.4 16.9-21.1 27.3.3-7.7.9-15.6 1.6-24.1 2.2-4.1 4.4-8.2 6.4-12.4 20-41-11-45.8-17.7-30-4.4 10.2 2.1 33.3 7 41.4-.8 10.4-1.3 20.5-1.4 30.5-.3-2.6-.6-5.2-1-7.8-5.6-40.7-36.9-27.3-30.1-8.9 2.9 7.9 26.4 28 31.1 27.7.2 9.5.9 18.9 1.9 28.1-1.1-3.7-2.3-7.3-3.6-10.6-13.6-36.2-60-10-5.7 23.7 2.1 1.3 8.7 6.4 12.4 7.9 1.5 7.8 3.2 15.5 5.3 23.2-.3-.7-.7-1.5-1-2.2-18.9-40.2-60.2-7-.7 33 2.5 1.7 14.8 11.7 16 9.2 4.8 10.8 10.3 21.6 16.6 32.4 1.1 1.9 2.2 3.7 3.4 5.5-34-40.2-49.9-7.6-30.6 9.3 8.7 7.6 42.4 17.6 48.4 15.8 8.5 10.6 17.8 20.6 27.4 30.2-6.8-4.6-13.9-9-19-10.9-32.1-12.1-48.3 36.3 31.5 24.6.6-.1 1-.2 1.5-.3 11.6 10.8 23.7 21.3 35.8 31.8.9.8 2.3.7 3.1-.2C855.9 2380.2 855.8 2378.9 854.9 2378.1z" clip-rule="evenodd"/><path fill="#febb46" d="M499.1,2640.4c164.1,6.7,852.3,14,873.8-4.3c11.5-9.9,34-64.7-149.6-73.3c131.9-150.8,84.1-236.5-90.7-164
		c144.2-290.9-127.9-334.4-187.1-327.4c-47,5.6-365.1,69.4-159.9,348.8c-179.7-60.2-211.8,32.1-108.8,126.1
		c-81.3-13.2-119.1-14.1-132.7,28.8C491.1,2577.9,458.1,2638.7,499.1,2640.4z"/><path fill="#da5638" d="M672.1,2645.5c0,0-205.9-181.2-144.2-211.8c61.7-30.6,136.7,136.9,144.2,111.7c7.5-25.2-40.3-255.4,74-239.4
		c114.3,16,0,239.4,0,239.4s84.7-91.6,114.3-77.3c29.6,14.4-42.3,163.5-90.1,177.4C731,2656.9,672.1,2645.5,672.1,2645.5z"/><path fill="#2b3e6d" d="M2084.7,304.4H1063.2
		c-73.2,0-132.6,59.4-132.6,132.6v2100.3c0,73.3,59.4,132.6,132.6,132.6h1037.6c73.3,0,132.6-59.4,132.6-132.7V453.1
		C2233.4,371,2166.9,304.4,2084.7,304.4z M2155.5,2394.4c0,49.5-40,89.5-89.4,89.5h-968.2c-49.4,0-89.4-40-89.4-89.5V471.7
		c0-49.4,40-89.4,89.4-89.4h968.2c49.4,0,89.4,40,89.4,89.4V2394.4z"/><path fill="#fff" d="M2155.5,471.7v1922.7c0,49.5-40,89.5-89.4,89.5h-968.2c-49.4,0-89.4-40-89.4-89.5V471.7
		c0-49.4,40-89.4,89.4-89.4h968.2C2115.5,382.3,2155.5,422.3,2155.5,471.7z"/><linearGradient id="a" x1="1201.899" x2="1901.249" y1="279.585" y2="2152.842" gradientUnits="userSpaceOnUse"><stop offset="0" stop-color="#ffe9fe"/><stop offset=".419" stop-color="#cfb3fd"/><stop offset="1" stop-color="#906bfc"/></linearGradient><rect width="916.2" height="1290.6" x="1123.9" y="652.4" fill="url(#a)"/><path fill="#fff" d="M1448.1 810.5c-2.7 2-5.5 3.5-8.4 4.4-2.9.9-5.8 1.2-8.7.8-2.9-.4-5.4-1.6-7.4-3.7-1.9 6-3.2 11.9-3.8 17.7-.3 1.1-.7 2-1.4 2.9-1.2 3.6-3.9 5.9-7.9 7.1-4 1.1-7.8.9-11.3-.6-1.6-.7-3-1.8-4-3.2-1.1-1.4-1.6-3.1-1.6-5.1 4.6-16 9.1-29.2 13.4-39.4.9-2.1 1.7-3.9 2.3-5.2.6-1.3 1.1-2.5 1.6-3.4.5-.9.9-1.8 1.3-2.5.4-.7.8-1.5 1.4-2.4 1.2-2 2.6-4.4 4.2-7.1 1.6-2.7 2.9-4.7 4-6.1 1.1-1.3 2.3-2.5 3.5-3.5 1.2-1 2.6-1.9 4.1-2.8 1.5-.9 3.4-2 5.7-3.4 2.3-1.4 4.7-2.3 7.3-2.6 2.6-.3 5-.1 7.4.7 5 1.5 8.6 5 11 10.4 2 5 2.3 11.6 1 20C1459.4 796.2 1454.9 805.2 1448.1 810.5zM1427 801.5c5.5-1.2 9.3-4.8 11.5-10.8 1.8-5 2.2-10.7 1.1-17.1-1.5 2.6-2.9 5.3-4.2 8.1-1.2 2.8-2.4 5.3-3.4 7.5C1429.8 794.3 1428.2 798.4 1427 801.5zM1475 832.3c-.6 2.7-2.7 4.3-6.2 4.9-3.3.6-6.4.2-9.3-1.1-3.3-1.4-4.7-3.4-4.3-5.9-.4-3.9 1.6-12.3 6.1-25.3 6.7-19.5 13.4-33.5 20.1-41.8 1.7-2.1 3.2-3.5 4.5-4.2 1.2-.6 2.7-1.2 4.3-1.8 1.6-.5 3.3-1 5-1.5 3.5-.9 6.8-1.6 9.9-2 3.1-.4 5.9 0 8.4 1.1 2.5 1.1 4.4 2.7 5.8 4.9 1.4 2.1 2.2 4.7 2.6 7.6.3 2.9.2 6-.3 9.1-.5 3.2-1.5 6.4-2.9 9.7-1.4 3.3-3.2 6.3-5.3 9.1-4.7 6.2-10.2 10.2-16.5 12l1 1.7c.9 1.3 1.9 2.8 3.2 4.4 1.2 1.6 2.5 3.3 3.7 4.9 1.2 1.7 2.4 3.4 3.4 5 1 1.7 1.7 3.3 2.2 4.7 1.1 3.3.2 5.7-2.5 7.1-2.2 1.3-4 1.7-5.2 1-.5-.3-1.1-.8-1.6-1.3-.5-.5-1.3-.9-2.2-1.3-4 1.1-7 .1-9.1-3-1.3-2-2.2-3.9-2.9-5.5-.7-1.7-1.2-3.1-1.7-4.2-1.2-2.5-2.6-4.6-4.1-6.4-.7 1.8-1.6 4.1-2.5 6.9-1.1 3.6-2.4 7.2-3.8 11.1H1475zM1495.3 773.8c-1.3 2.9-2.2 4.9-2.6 6-.9 2.3-2 4.8-3.1 7.5-.2 1.5-.4 2.5-.5 3.1l1.4-1.4 1.7-.8c1.2-.7 2.3-1.3 3.3-1.8 1-.5 1.9-1.2 2.7-2 1.5-1.5 2.9-4.1 4-7.5 0-.7.1-1.3.4-2 .2-.7.4-1.3.5-2 .3-1.5-.3-2.5-1.8-3.1-1.3-.1-3 1-5 3.3C1495.8 773.5 1495.5 773.8 1495.3 773.8zM1536.4 765.4c4.2-4.8 8.9-7.8 14.1-9.1 3.6-.9 6.9-.7 10.1.4 2.5-2.6 5.7-3.6 9.7-2.8 3.6.7 6.7 2.7 9.3 6.1.1.5.4 1.2.9 2.1.4.9.9 2 1.3 3.1 3 6.8 3.2 15.8.7 27-3.1 13.8-8.5 25.5-16.4 35.1-2.4 3-5.1 5.4-8.1 7.3-4.8 3.7-10.6 5.3-17.3 4.9-4.2-.2-7.6-1.2-10.5-3.1-11.2-5.6-14.9-17.2-11-34.8C1522.2 787.2 1528 775.1 1536.4 765.4zM1537.6 818.8l-.1.6.2 1.1c.4 2.1 1.1 3.7 2 4.8.9 1.1 1.7 1.8 2.3 2.1.7-.5 1.3-1 2-1.5.7-.5 1.3-1 1.8-1.7 4.6-5.6 8.1-13 10.7-22.1 2.6-9.1 3.5-17.6 2.8-25.3-2.6 3.4-5.4 7.2-8.2 11.6-2.9 4.4-5.2 8.1-6.8 11.2C1540.4 806.6 1538.2 813.1 1537.6 818.8zM1595.1 831.1c-.9 3.2-3.1 5.3-6.6 6.3-3.2.9-6.1.6-8.6-1-2.8-1.7-3.6-4.2-2.6-7.4.9-3.8 2.6-9.8 5-18 2.5-8.2 4.2-14 5.2-17.4 2.3-8.3 3.8-13.8 4.4-16.5 2.1-6.7 3.6-10.9 4.5-12.5.9-1.6 1.7-2.7 2.4-3.4.7-.6 1.8-1.4 3.3-2.3 1.5-.9 3.1-1.5 4.9-2 1.7-.5 3.5-.8 5.2-1 1.7-.2 3.5-.3 5.3-.4 1.8-.1 3.8-.4 6-1 .9 0 1.7-.1 2.4-.2.7-.1 1.4-.2 2.1-.3 1.5-.1 3.1 0 4.6.5 1.5.5 2.6 1.3 3.4 2.5.8 1.2 1.2 2.6 1.2 4.1 0 1.5-.3 3.2-1 4.9-.6 1.7-1.5 3.4-2.7 5-2.5 3.5-5.6 6-9.3 7.4-2.6.8-4.5 1.2-5.6 1.2-1.1 0-1.9-.1-2.4-.4-.4-.3-.7-.5-.8-.6-.1-.1-.3.1-.7.7-.6.9-1 1.8-1.3 2.9s-.6 1.9-.9 2.4c-.3.5-.8 1.5-1.4 3-.6 1.5-1.3 2.7-2.2 3.7-.9 1-1.4 1.6-1.5 1.8l8.9-.9c1.4-.1 2.6.2 3.7.9 1 .7 1.8 1.6 2.2 2.6.4 1 .6 2 .3 3-.2 1-.8 1.7-1.8 2.2-1 .5-1.7 1-2 1.5-.3.5-.6 1-.8 1.5-.2.5-.5.9-.8 1.4-.3.5-1 .9-2 1.3-2.2 1-6.3 1.8-12.4 2.4-.3 1-.8 2.2-1.4 3.6-.6 1.4-1.2 2.8-1.8 4.3-1.7 4.5-2.7 7.2-3 8.1-.2.9-.4 1.7-.6 2.3C1595.8 829.2 1595.4 830.4 1595.1 831.1zM1665.4 764c-2.3 7.3-4.5 13.9-6.5 19.8-2 5.9-3.8 11.3-5.4 16.3-1.6 5-3.2 9.5-4.6 13.7-1.4 4.2-2.7 8.2-3.9 12-.7 4.4-2.8 7.5-6.5 9.4-2.1 1-4.7 1.5-7.6 1.5-3 0-5.2-.3-6.6-1-1.5-.6-2.4-1.6-2.9-2.8-.4-1.2-.4-2.7 0-4.4.4-1.7 1.2-4.1 2.3-7 1.1-3 2.4-7 4.1-12.1 1.6-5.1 3.4-10.3 5.2-15.5 4.5-13.1 8-22.1 10.7-27.2 1-1.9 2-3.1 3-3.8 1-.6 2-1.1 2.9-1.4.9-.3 1.8-.7 2.6-1.1.8-.4 1.5-1.4 2.2-3s1.8-2.7 3.5-3.3c1.7-.6 3.3-.7 4.8-.2 1.5.5 2.6 1.6 3.4 3.2C1666.7 759 1666.5 761.2 1665.4 764zM1690.6 837.5c-1.3 0-2.6.1-3.9.2-1.3.1-3.1.1-5.4.1-2.3 0-5.7-.1-10.3-.2-1.1.1-2.1.1-3.2.1-1.1 0-2.1-.2-3-.6-2.1-.9-3.5-2.9-4.2-6-.3-1.5-.7-2.5-1.2-3.1-.4-.6-.8-1.2-1.1-1.7-.7-1.1-.6-2.8.2-5.3.8-2.5 1.8-5.5 3-9.2s2.6-7.5 4.1-11.6c3.6-9.7 6.9-17.4 9.8-23.1 1.1-2.5 2.1-4.8 3-6.6.8-1.9 1.6-3.5 2.3-4.9.7-1.4 1-2.1 1-2.2.7-2.5 3.3-4.7 7.7-6.4 4.4-1.8 8.3-2.3 11.9-1.4 4 1 5.7 3.6 5.2 7.8-.9 4.2-2.3 8.3-4.2 12.5-1.8 4.2-3.9 8.5-6.3 13.1-2.3 4.6-4.9 9.4-7.6 14.5-2.7 5.1-5.5 10.6-8.1 16.6-.1.3.1.5.4.7.9-.1 2.1-.3 3.7-.8 1.6-.5 3.2-.9 4.9-1.3 1.7-.4 3.4-.6 5.1-.6 1.7 0 3.1.4 4.2 1.3-.1 1.2.2 2.2.9 2.9.7.7 1.3 1.4 2 2.1 1.7 1.7 1.8 4.1.4 6.9-1.3 2.8-3.8 4.7-7.2 5.7C1693.2 837.2 1691.9 837.4 1690.6 837.5zM1729.4 819.3c3.9.4 6.8.6 8.7.6 1.9 0 4.8-.3 8.7-.8 1.2.4 1.9.9 2.1 1.5.2.6.3 1.2.2 1.9-.1.6 0 1.3.1 1.9.1.6.8 1.1 1.9 1.5.6.2.8.8.6 1.8-.2 1-.8 2-1.7 3.2-2.2 2.9-4.8 4.9-7.8 6-4.8 1.2-8.6 1.9-11.4 2.1-4.6.3-9.5.2-14.9-.5-5.9-1.1-8.7-3.5-8.5-7.3 0-14.1 3.1-28.2 9.3-42.4 2-4.6 4.3-9.5 6.8-14.6.5-1.1.9-2.3 1-3.6.1-1.3.2-2.6.3-3.9.1-1.3.3-2.4.6-3.4.3-1 1-1.7 2.1-2.1 13.9-5.6 25-7.7 33.1-6.4 2.8.1 4.7 1 5.6 2.9.9 1.8 1 3.9.3 6.2-.7 2.3-2.1 4.4-4.1 6.4-2 2-4.6 3.3-7.7 3.7-4 1.1-6.4 1.9-7.2 2.3-1.7.8-2.9 1.9-3.6 3.2-.9 1.5-1.8 2.9-2.6 4.2-.8 1.3-1.4 2.8-1.7 4.3l-.4 2.2c1.3.6 2.8.8 4.7.6 1.8-.2 3.6-.5 5.1-.7 1.6-.2 2.9-.3 3.8-.1 1 .2 1.2 1.2.6 3-.6 1.8-1.6 3.8-3.1 6-1.5 2.2-3.6 3.8-6.4 4.8-1.7.3-2.9.6-3.6.8-.6.2-1.1.3-1.5.4-.5.1-1.8.2-4 .3-3.2 5.4-5.1 9.5-5.7 12.5C1728.7 818.7 1728.8 819.3 1729.4 819.3z"/><rect width="50.3" height="26.8" x="1413.3" y="971.3" fill="#fff"/><rect width="81.4" height="26.8" x="1577.5" y="971.3" fill="#fff"/><rect width="81.5" height="26.8" x="1479.2" y="971.3" fill="#fff" opacity=".5"/><rect width="82.6" height="26.8" x="1413.3" y="1025.8" fill="#fff" opacity=".5"/><rect width="147.4" height="26.8" x="1511.5" y="1025.8" fill="#fff"/><rect width="147.4" height="26.8" x="1413.3" y="1080.2" fill="#fff" opacity=".5"/><rect width="39.5" height="17.4" x="1233.5" y="1590.3" fill="#fff"/><rect width="63.9" height="17.4" x="1362.4" y="1590.3" fill="#fff"/><rect width="63.9" height="17.4" x="1285.2" y="1590.3" fill="#fff" opacity=".5"/><rect width="64.8" height="17.4" x="1233.5" y="1625.6" fill="#fff" opacity=".5"/><rect width="115.6" height="17.4" x="1310.6" y="1625.6" fill="#fff"/><rect width="115.7" height="17.4" x="1233.5" y="1661" fill="#fff" opacity=".5"/><rect width="39.5" height="17.4" x="1486.7" y="1590.3" fill="#fff"/><rect width="63.9" height="17.4" x="1615.5" y="1590.3" fill="#fff"/><rect width="63.9" height="17.4" x="1538.4" y="1590.3" fill="#fff" opacity=".5"/><rect width="64.8" height="17.4" x="1486.7" y="1625.6" fill="#fff" opacity=".5"/><rect width="115.7" height="17.4" x="1563.7" y="1625.6" fill="#fff"/><rect width="115.7" height="17.4" x="1486.7" y="1661" fill="#fff" opacity=".5"/><rect width="39.5" height="17.4" x="1739.8" y="1590.3" fill="#fff"/><rect width="63.9" height="17.4" x="1868.7" y="1590.3" fill="#fff"/><rect width="63.9" height="17.4" x="1791.5" y="1590.3" fill="#fff" opacity=".5"/><rect width="64.8" height="17.4" x="1739.8" y="1625.6" fill="#fff" opacity=".5"/><rect width="115.7" height="17.4" x="1816.9" y="1625.6" fill="#fff"/><rect width="115.7" height="17.4" x="1739.8" y="1661" fill="#fff" opacity=".5"/><rect width="173.5" height="36.1" x="1759" y="1765" fill="#fff" opacity=".5"/><rect width="50.3" height="26.8" x="1718.1" y="971.3" fill="#fff"/><rect width="81.4" height="26.8" x="1882.2" y="971.3" fill="#fff"/><rect width="81.5" height="26.8" x="1784" y="971.3" fill="#fff" opacity=".5"/><rect width="82.6" height="26.8" x="1718.1" y="1025.8" fill="#fff" opacity=".5"/><rect width="147.4" height="26.8" x="1816.3" y="1025.8" fill="#fff"/><rect width="147.4" height="26.8" x="1718.1" y="1080.2" fill="#fff" opacity=".5"/><g><path fill="#fff" d="M1370.3,1045.1c0,15.6-4.3,30.3-11.8,42.8c-14.6,24.4-41.2,40.8-71.8,40.8c-30.4,0-57.1-16.3-71.7-40.7
				c-7.6-12.6-11.9-27.2-11.9-42.9c0-46.2,37.5-83.6,83.6-83.6C1332.9,961.5,1370.3,998.9,1370.3,1045.1z"/><path fill="#30a0b2" d="M1318.9,1037.6h-64.3c-17.3,14.5-31.4,31.7-43.8,42.3c1.3,2.8,2.7,5.5,4.3,8.1
				c14.6,24.3,41.2,40.7,71.7,40.7c30.5,0,57.2-16.4,71.8-40.8c1.5-2.6,3-5.3,4.3-8C1347.8,1067.5,1333.4,1050.3,1318.9,1037.6z"/><polygon fill="#1b2d51" points="1251.5 1086.1 1249.4 1119.9 1240.9 1115.3 1233.5 1109.6 1246 1106"/><polygon fill="#1b2d51" points="1320.8 1086.1 1327.8 1118.1 1334.9 1113.8 1342.1 1107.7 1330.8 1106"/><path fill="#fda998" d="M1307.5,989.7c0,0,7.1-5,10,1.3c2.8,6.3-2.9,16.6-9.3,12L1307.5,989.7z"/><path fill="#1b2d51" d="M1316.5,995.3c0.1-0.4,0.1-0.8,0-1.2c-0.2-1.7-1.3-2.9-1.4-3c-0.2-0.2-0.4-0.2-0.6,0
								c-0.2,0.2-0.2,0.4,0,0.6c0.1,0,0.7,0.7,1,1.7c-0.6-0.4-1.2-0.5-1.2-0.5c-0.2-0.1-0.5,0.1-0.5,0.3c-0.1,0.2,0.1,0.4,0.3,0.5
								c0.1,0,0.8,0.2,1.6,0.8c0,0.7-0.2,1.5-0.8,2.3c-0.1,0.2-0.1,0.4,0.1,0.6c0,0,0.1,0.1,0.1,0.1c0.2,0,0.3,0,0.4-0.1
								C1316.1,996.7,1316.4,996,1316.5,995.3z"/><path fill="#fda998" d="M1267.1,989.7c0,0-7.1-5-10,1.3c-2.8,6.3,2.9,16.6,9.3,12L1267.1,989.7z"/><path fill="#1b2d51" d="M1258,995.3c-0.1-0.4-0.1-0.8,0-1.2c0.2-1.7,1.3-2.9,1.4-3c0.2-0.2,0.4-0.2,0.6,0c0.2,0.2,0.2,0.4,0,0.6
								c-0.1,0-0.7,0.7-1,1.7c0.6-0.4,1.2-0.5,1.2-0.5c0.2-0.1,0.5,0.1,0.5,0.3c0.1,0.2-0.1,0.4-0.3,0.5c-0.1,0-0.8,0.2-1.6,0.8
								c0,0.7,0.2,1.5,0.8,2.3c0.1,0.2,0.1,0.4-0.1,0.6c0,0-0.1,0.1-0.1,0.1c-0.2,0-0.3,0-0.4-0.1
								C1258.4,996.7,1258.1,996,1258,995.3z"/><path fill="#fda998" d="M1298.6,1037.4c0,0-4,4-11.4,4c-7.4,0-11.9-3.7-11.9-3.7s1.3-7,2.3-12c0.5-2.9,1-5.3,1-5.6h17.2l1.2,7.4
						L1298.6,1037.4z"/><path fill="#fda998" d="M1265.1,965.3c10.7-2.7,23.6-0.6,45.7,0.2c3.5,1.4,3.5,18.6,0.9,31.5c-2.5,12.2-7.9,32.9-25.8,32
						c-14.9-0.8-20.7-17.7-21.6-33.9C1263.6,983.4,1264,971.8,1265.1,965.3z"/><path fill="#1b2d51" d="M1312.8,989.7c0-0.1-7.7,22-14,23.3c-5.4,1.1-6-3.9-11.9-4.2c-3.3-0.2-7.7,7.4-14.1,3.1
						c-7-4.6-8.9-26-8.9-25.9c-1.2,34.6,12.6,42.6,22,43.1c10.3,0.5,16.5-6.2,20.4-14.4c0.1-0.1,0.1-0.1,0.1-0.1
						S1312.4,1001.6,1312.8,989.7z"/><path fill="#1b2d51" d="M1309.6,956.5c3-1.9,4.2-6,3.6-7.7c-0.9-2.6-8.7,5-8.7,5s4.8-5.9,2-9c-2-2.2-3,4.8-3.5,9.1
						c-2.9-3.1-5.2-7.6-7.4-9c-17.5-10.7-27.7,10.7-33.7,13c-11.9,4.6-0.8,27.8,2.6,29.7c7.7-3.1-3.6-19.3,8.5-17.1
						c5.9,1.1,13.5-5,15.2-3.8c0.6,0.5-3.8,4.9-3.4,6.7c0.8,3.1,16.9-7.1,16.9-7.1s0.9,12.3,9,13.4c-0.9,6.7-1.4,11.4,1.8,10.6
						c1.7-0.5,4.8-4.7,6.2-11.9C1321.4,966,1320.1,953.9,1309.6,956.5z"/><path fill="#1b2d51" d="M1291.2 984.5c0 0 11.4 0 12.7-1.1 1.2-1.1-2.2-3.6-7.3-2.6C1291.4 981.9 1289.9 984.4 1291.2 984.5zM1283.9 985.5c0 0-11.4-1.2-12.5-2.3-1.1-1.2 2.6-3.4 7.6-1.8C1283.9 982.8 1285.2 985.5 1283.9 985.5z"/><path fill="#1b2d51" d="M1305.7 1000.7c.1 1.6-1.7 3.1-4.2 3.3-2.4.2-4.5-.9-4.7-2.6-.1-1.6 1.7-3.1 4.2-3.3C1303.5 997.9 1305.6 999.1 1305.7 1000.7zM1271.2 1000.7c-.3 1.6 1.4 3.3 3.8 3.7 2.4.5 4.6-.5 4.9-2.1.3-1.6-1.4-3.3-3.8-3.7C1273.7 998.2 1271.5 999.1 1271.2 1000.7z" opacity=".25"/><path fill="#1b2d51" d="M1286.5 1003.3c-.2 0-.5-.1-.7-.2-1.4-.5-1.9-2.2-1.9-2.3-.1-.2 0-.4.1-.6 2.7-3.5 2.5-8.6 2.5-8.6 0-.4.3-.7.6-.7.4 0 .7.3.7.6 0 .2.2 5.3-2.6 9.2.2.4.5.9 1 1.1.4.2 1 0 1.7-.4.3-.2.7-.1.9.2.2.3.1.7-.2.9C1288 1003.1 1287.2 1003.4 1286.5 1003.3zM1279.6 990.2c0-.3-.1-.6-.1-.9-.2.2-.4.2-.7.2-.7 0-1.3-.7-1.3-1.5 0-.3.1-.5.1-.7-.2-.1-.4-.1-.6-.1-1.4 0-2.6 1.4-2.6 3.1 0 1.7 1.2 3.1 2.6 3C1278.5 993.4 1279.6 991.9 1279.6 990.2zM1300.1 990.2c0-.3-.1-.6-.1-.9-.2.2-.4.2-.7.2-.7 0-1.3-.7-1.3-1.5 0-.3.1-.5.1-.7-.2-.1-.4-.1-.6-.1-1.4 0-2.6 1.4-2.6 3.1 0 1.7 1.2 3.1 2.6 3C1298.9 993.4 1300.1 991.9 1300.1 990.2z"/><path fill="#fff" d="M1284.6,1015.5c1.1-1.1,2.7-2.1,5.4-0.1c0.7,0.5-0.2,3.5-2.6,3.5C1284.9,1019,1283.9,1016.2,1284.6,1015.5z
					"/></g><path fill="#fff" d="M1308.6 1782.5c0 22.2-18 40.2-40.2 40.2-22.2 0-40.2-18-40.2-40.2 0-22.2 18-40.2 40.2-40.2C1290.6 1742.3 1308.6 1760.3 1308.6 1782.5zM1430.3 1782.5c0 22.2-18 40.2-40.2 40.2-22.2 0-40.2-18-40.2-40.2 0-22.2 18-40.2 40.2-40.2C1412.3 1742.3 1430.3 1760.3 1430.3 1782.5zM1552 1782.5c0 22.2-18 40.2-40.2 40.2-22.2 0-40.2-18-40.2-40.2 0-22.2 18-40.2 40.2-40.2C1534 1742.3 1552 1760.3 1552 1782.5zM1673.7 1782.5c0 22.2-18 40.2-40.2 40.2-22.2 0-40.2-18-40.2-40.2 0-22.2 18-40.2 40.2-40.2C1655.7 1742.3 1673.7 1760.3 1673.7 1782.5z"/><g><polygon fill="#fff" points="1293.6 1204.6 1309.5 1236.9 1345.2 1242.1 1319.4 1267.2 1325.5 1302.7 1293.6 1285.9 1261.7 1302.7 1267.8 1267.2 1242 1242.1 1277.7 1236.9"/><polygon fill="#fff" points="1437.8 1204.6 1453.7 1236.9 1489.4 1242.1 1463.6 1267.2 1469.7 1302.7 1437.8 1285.9 1405.9 1302.7 1412 1267.2 1386.2 1242.1 1421.9 1236.9"/><polygon fill="#fff" points="1582 1204.6 1597.9 1236.9 1633.6 1242.1 1607.8 1267.2 1613.9 1302.7 1582 1285.9 1550.1 1302.7 1556.2 1267.2 1530.4 1242.1 1566.1 1236.9"/><polygon fill="#fff" points="1726.2 1204.6 1742.1 1236.9 1777.7 1242.1 1752 1267.2 1758.1 1302.7 1726.2 1285.9 1694.3 1302.7 1700.4 1267.2 1674.6 1242.1 1710.3 1236.9"/><polygon fill="#fff" points="1870.4 1204.6 1886.3 1236.9 1921.9 1242.1 1896.2 1267.2 1902.2 1302.7 1870.4 1285.9 1838.5 1302.7 1844.6 1267.2 1818.8 1242.1 1854.4 1236.9"/><rect width="235" height="37.2" x="1232.7" y="1397.8" fill="#fff"/><rect width="419.3" height="37.2" x="1512" y="1397.8" fill="#fff" opacity=".5"/><rect width="374.9" height="37.2" x="1232.7" y="1473.3" fill="#fff" opacity=".5"/></g><g><path fill="#2b3e6d" d="M1336,2043.1v62.2c42.7,0,77.2,34.6,77.2,77.2c0,23.7-10.7,44.9-27.5,59.1l35.6,51.2
			c32.9-25.5,54.1-65.4,54.1-110.3C1475.5,2105.5,1413.1,2043.1,1336,2043.1z" opacity=".2"/><linearGradient id="b" x1="1109.905" x2="1408.499" y1="2046.048" y2="2365.027" gradientUnits="userSpaceOnUse"><stop offset="0" stop-color="#ffe9fe"/><stop offset=".419" stop-color="#cfb3fd"/><stop offset="1" stop-color="#906bfc"/></linearGradient><path fill="url(#b)" d="M1421.3,2292.8
			c-23.6,18.3-53.2,29.2-85.4,29.2c-77,0-139.5-62.4-139.5-139.5c0-25.4,6.8-49.2,18.7-69.7l53.9,31.1
			c-6.6,11.3-10.3,24.5-10.3,38.6c0,42.7,34.6,77.2,77.2,77.2c18.9,0,36.4-6.8,49.7-18.2L1421.3,2292.8z"/><line x1="1201.2" x2="1285.7" y1="2103.2" y2="2152.5" fill="#2b3e6d"/><rect width="4.4" height="97.8" x="1241.3" y="2078.9" fill="#2b3e6d" transform="rotate(-59.768 1243.4 2127.803)"/></g><g opacity=".25"><rect width="69.4" height="30" x="1553.9" y="2108.8" fill="#2b3e6d"/><rect width="112.2" height="30" x="1780.3" y="2108.8" fill="#2b3e6d"/><rect width="112.4" height="30" x="1644.7" y="2108.8" fill="#2b3e6d" opacity=".5"/><rect width="113.9" height="30" x="1553.9" y="2169.7" fill="#2b3e6d" opacity=".5"/><rect width="203.2" height="30" x="1689.3" y="2169.7" fill="#2b3e6d"/><rect width="203.2" height="30" x="1553.9" y="2230.6" fill="#2b3e6d" opacity=".5"/></g><g opacity=".2"><path fill="#2b3e6d" d="M1168.2,486.4h709.2c24.5,0,44.3,19.8,44.3,44.3l0,0c0,24.5-19.8,44.3-44.3,44.3h-709.2
			c-24.5,0-44.3-19.8-44.3-44.3l0,0C1123.9,506.2,1143.7,486.4,1168.2,486.4z"/></g><path fill="#2b3e6d" d="M1951,530.7c0,24.6,19.9,44.6,44.6,44.6c24.6,0,44.6-19.9,44.6-44.6c0-24.6-19.9-44.6-44.6-44.6
		C1970.9,486.1,1951,506.1,1951,530.7z" opacity=".2"/><path fill="#fff" d="M2017,553.3l-10-14.5c-0.7-1-1.8-1.5-2.9-1.4l-3.7-5.3c6.2-5.4,7.6-14.7,2.8-21.6c-5.1-7.4-15.3-9.3-22.7-4.2
		c-7.4,5.1-9.3,15.3-4.2,22.7c4.8,6.9,14,9,21.2,5.1l3.7,5.3c-0.5,1-0.4,2.3,0.3,3.3l10,14.5c1.1,1.5,3.1,1.9,4.7,0.9
		C2017.7,556.9,2018.1,554.8,2017,553.3z M1996.3,529.2c-5.2,3.6-12.4,2.3-16-3c-3.6-5.3-2.3-12.4,2.9-16.1
		c5.3-3.6,12.4-2.3,16.1,2.9C2002.9,518.4,2001.6,525.6,1996.3,529.2z"/><g><path fill="#febb46" d="M1682.6,2301.4l35,2.3c26,1.7,45.8,24.3,44,50.3l-4.3,65c-0.6,8.6-8,15.1-16.6,14.5l-0.8-0.1l5.8-86.5
		c0.7-11.1-3.9-20.5-10.3-21l-73.4-4.9c-6.4-0.4-12.2,8.3-13,19.4l-5.8,86.5l-0.8-0.1c-8.6-0.6-15.1-8-14.5-16.6l4.3-65
		C1634,2319.4,1656.5,2299.7,1682.6,2301.4z"/><path fill="#da5638" d="M1432.3,2365.1c0,0-70.8,239.6-19.2,291.1c82.4,82.4,207.9,6.6,462.8,27.9c30.3,2.5,103.4,0.9,85.9-68.9
		c-28.2-112.9-9.5-215.4-9.5-215.4c1.8-26.7-16.9-49.7-41.8-51.3l-429.9-28.7C1455.7,2318.1,1434.1,2338.4,1432.3,2365.1z"/><path fill="#1b2d51" d="M1875.9,2684.1c-254.9-21.3-380.4,54.5-462.8-27.8c-6.8-6.9-11.5-17-14.4-29.4
		c116.1,72.7,457.3,10.8,467.1,4.2c10.5-7.1-20.8-17.5-23.1-27.1c-2.5-9.4,53.9,22.1,63.7-31.9c35.5-195.6-9-183.9-11.5-224.6
		l15.7,1c24.9,1.7,43.6,24.6,41.8,51.3c0,0-18.6,102.5,9.5,215.5C1979.3,2685,1906.2,2686.6,1875.9,2684.1z"/><path fill="#1b2d51" d="M1853,2480.6c0,0-198.4,8.6-330.9-19.8C1522.1,2460.8,1674.7,2520.9,1853,2480.6z"/><path fill="#febb46" d="M1691.3,2518l-17.7-1.2c-13.2-0.9-23.1-12.3-22.2-25.4l2.2-32.8c0.3-4.3,4-7.6,8.4-7.3l0.4,0l-2.9,43.7
		c-0.4,5.6,1.9,10.4,5.2,10.6l37.1,2.5c3.2,0.2,6.2-4.2,6.5-9.8l2.9-43.7l0.4,0c4.3,0.3,7.6,4,7.3,8.4l-2.2,32.8
		C1715.8,2508.9,1704.4,2518.9,1691.3,2518z"/></g><g><path fill="#30a0b2" d="M2070.5,2584.8c22.9,0,43.4-1,44.7,10.1c1.3,11.2,1.3,88.8-5.7,91.9c-7,3.1-157.4,0-172.2,0
					c-14.8,0-9.1-53.2,36.6-54.3l56.4-45.4L2070.5,2584.8z"/><path fill="#0f1f38" d="M2113.4,2673.3c0-0.1-66.3,3.1-103.4,2.9c-4.1,0-7.5-10.6-44.6-11.2c-25.7-0.7-34.4,7.4-35.3,8.3
					c-1.7,1.7-4.9,17.7,2.3,19c7.3,1.3,174.3,2.9,177.1,0C2115,2686.6,2113.4,2673.3,2113.4,2673.3z"/><path fill="#fda998" d="M2103.1,2504c0,4.7-3.7,75.2-4.9,94.3c-7.7,9.3-55.5,12.4-59.6,2.3c0-15.8-6.6-96.5-6.6-96.5H2103.1z"/><path fill="#30a0b2" d="M2086,2609.2c3.5-5.6,6.5-37.9-7.8-47.5c-14.3-9.6-36.6-8.6-41.8,0c-5.2,8.6-11.4,39.8-12.2,46.3
					C2023.5,2614.4,2076.4,2624.5,2086,2609.2z"/><path fill="#0f1f38" d="M2045.8,2656.2c-1.8-5.2-36.1-27.8-71.9-23.6c0,0,16.1-15.3,50.4-2.9
					C2049.6,2638.8,2045.8,2656.2,2045.8,2656.2z"/><path fill="#fff" d="M2037.2 2624.8c-6.5-3.7-39.2-5.7-31.9-10.2 7.3-4.4 31.7.8 33.5 6.5C2040.6 2626.8 2037.2 2624.8 2037.2 2624.8zM2047.3 2613.6c-6.5-3.7-39.2-5.7-31.9-10.2 7.3-4.4 31.7.8 33.5 6.5C2050.7 2615.7 2047.3 2613.6 2047.3 2613.6zM2057.5 2602.5c-6.5-3.7-39.2-5.7-31.9-10.2 7.3-4.4 31.7.8 33.5 6.5C2060.9 2604.5 2057.5 2602.5 2057.5 2602.5z"/><path fill="#da5638" d="M2173.5,1493.1c0,0-26.2,992.3-42.1,1028c-15.9,35.7-106.3,11.9-116.3,0c-7.2-8.6-56.6-729.3-64.1-1055.5
					C2115.5,1458.9,2173.5,1493.1,2173.5,1493.1z"/><path fill="#0f1f38" d="M2003.5 2011.7c1.5-2.4 16 4.1 32.4 14.3 16.4 10.3 28.5 20.5 27 22.9-1.5 2.4-16-4.1-32.4-14.3C2014.1 2024.3 2002 2014 2003.5 2011.7zM1969.5 2005.8c.7-.2 1.7.7 3 2.5.7.9 1.4 2 2.1 3.2 1 1.4 2 2.7 3 4 4.4 5.9 11.3 13.3 20.3 20.2 18.2 13.6 36 20.9 35.1 23.6-.6 2.6-21-.5-41.2-15.5-10-7.6-17.1-17-20.4-24.7-.8-1.9-1.5-3.7-2-5.2-.3-1.6-.6-3-.7-4.2C1968.7 2007.3 1968.9 2006 1969.5 2005.8z"/><path fill="#30a0b2" d="M2241,2584.8c-22.9,0-43.4-1-44.7,10.1c-1.3,11.2-1.3,88.8,5.7,91.9c7,3.1,157.4,0,172.2,0
					c14.8,0,9.1-53.2-36.6-54.3l-56.4-45.4L2241,2584.8z"/><path fill="#0f1f38" d="M2198.1,2673.3c0-0.1,66.3,3.1,103.4,2.9c4.1,0,7.5-10.6,44.6-11.2c25.7-0.7,34.4,7.4,35.3,8.3
					c1.7,1.7,4.9,17.7-2.3,19c-7.3,1.3-174.3,2.9-177.1,0C2196.4,2686.6,2198.1,2673.3,2198.1,2673.3z"/><path fill="#fda998" d="M2208.4,2504c0,4.7,3.7,75.2,4.9,94.3c7.7,9.3,55.5,12.4,59.6,2.3c0-15.8,6.6-96.5,6.6-96.5H2208.4z"/><path fill="#30a0b2" d="M2225.4,2609.2c-3.5-5.6-6.5-37.9,7.8-47.5c14.3-9.6,36.6-8.6,41.8,0c5.2,8.6,11.4,39.8,12.2,46.3
					C2288,2614.4,2235,2624.5,2225.4,2609.2z"/><path fill="#0f1f38" d="M2265.6,2656.2c1.8-5.2,36.1-27.8,71.9-23.6c0,0-16.1-15.3-50.4-2.9
					C2261.9,2638.8,2265.6,2656.2,2265.6,2656.2z"/><path fill="#fff" d="M2274.2 2624.8c6.5-3.7 39.2-5.7 31.9-10.2-7.3-4.4-31.7.8-33.5 6.5C2270.8 2626.8 2274.2 2624.8 2274.2 2624.8zM2264.1 2613.6c6.5-3.7 39.2-5.7 31.9-10.2-7.3-4.4-31.7.8-33.5 6.5C2260.7 2615.7 2264.1 2613.6 2264.1 2613.6zM2253.9 2602.5c6.5-3.7 39.2-5.7 31.9-10.2-7.3-4.4-31.7.8-33.5 6.5C2250.6 2604.5 2253.9 2602.5 2253.9 2602.5z"/><path fill="#da5638" d="M2375.2,1473.9c0,0-60.2,1012.3-76,1048c-15.9,35.7-108.4,16.7-118.3,4.8c-7.2-8.6-4.3-556.6-35.4-860.8
					c-49.8-120.3-101.2-208.7-101.2-208.7L2375.2,1473.9z"/><path fill="#0f1f38" d="M2330.6 2011.9c-.7-2.7-16.4-.9-35.2 4.1-18.7 4.9-33.3 11.1-32.6 13.8.7 2.7 16.4.9 35.2-4.1C2316.7 2020.7 2331.3 2014.6 2330.6 2011.9zM2350.9 2025.5c-.6-.4-1.9.2-3.6 1.5-.9.6-1.9 1.5-3 2.4-1.4 1-2.7 2-4.1 3-6 4.4-14.7 9.4-25.4 13.3-21.4 7.6-40.6 9.2-40.5 12.1-.2 2.7 20.2 5.7 44-2.6 11.8-4.3 21.4-11.2 26.8-17.5 1.3-1.6 2.5-3.1 3.4-4.4.8-1.5 1.4-2.7 1.9-3.8C2351.2 2027.2 2351.4 2025.9 2350.9 2025.5zM2132.4 1586.6c-.4-.1-1.2 1.9-2.5 5.9-1.4 3.9-2.9 10-4 17.9-11.9 58.1 27.5 78.9 27.5 78.9 0 22.7 4.6 299 6.1 347 .8 24 14.5-341 14-365.2-1.4-.6-17.9-8.7-19.2-9.3-1.2-.5-1.5-.7-2.2-1.2-1.4-.7-2.6-1.6-3.8-2.5-2.4-1.9-4.6-3.9-6.4-6.1-3.8-4.3-6.4-9.4-8.1-14.3-3.4-9.9-3.8-19.4-3.5-27 .4-7.7 1.2-13.7 1.9-17.7C2132.6 1588.9 2132.8 1586.7 2132.4 1586.6z"/><path fill="#fda998" d="M1603.6,1242.5c-3.2,3-2.7,6.9,1.1,10.5c8.1,7.7,16.9,14.5,25.6,22c-21.9,1.6-45.4,3.8-67.2,5.5
				c-0.4,2.8,1.6,5.2,3.6,6.4c2,1.2,4.4,1.6,6.7,2c9.1,1.5,18.2,2.5,27.4,2.9c-15.1,3.1-25.9,5-40,8.4c0.2,2.2,1.9,5,4,5.8
				c2.1,0.8,6.2,0.9,8.4,1c10.1,0.2,18.4,0.4,28.5,0.5c-10.3,2.9-20.7,6.9-31,9.8c-0.3,1.7,1.5,4.2,3,5c1.5,0.8,3.3,1.1,5,1.1
				c8.7,0,20.2-1.1,27.1-1.4c-6.7,2.6-13.4,6-20.1,8.6c1.6,6.6,9.4,2.7,14.9,2.7c22.7-0.1,46.6-0.1,69.3-0.1c0,0,17.2-0.1,30.1-1.3
				c-0.1-0.7-1.6-51.9-1.4-56.3c-6.3,0.2-19.5,0.3-19.5,0.3C1658.8,1254.2,1643.6,1258.3,1603.6,1242.5z"/><path fill="#1b2d51" d="M1607 1290.9c.1.8-2.4 1.7-5.5 2-3.1.3-5.7-.1-5.8-.9s2.4-1.7 5.5-2S1606.9 1290.1 1607 1290.9zM1609.6 1306.8c.1.8-2.4 1.7-5.5 2-3.1.3-5.7-.1-5.8-.9-.1-.8 2.4-1.7 5.5-2C1607 1305.6 1609.6 1306 1609.6 1306.8zM1613.3 1321.5c.1.8-2.4 1.7-5.5 2-3.1.3-5.7-.1-5.8-.9-.1-.8 2.4-1.7 5.5-2C1610.7 1320.3 1613.2 1320.7 1613.3 1321.5zM1622.7 1320.4c-.8.1-2.1-6.6-2.8-14.8-.7-8.2-.7-15 .1-15.1.8-.1 2.1 6.6 2.8 14.8C1623.5 1313.6 1623.5 1320.3 1622.7 1320.4zM1654.8 1295.1c0 .3-2 1-5.5.9-3.5 0-8.5-1.4-12.6-5.1-4.1-3.6-6.1-8.3-7.1-11.5-1-3.3-.9-5.5-.5-5.6.4-.1 1.1 1.9 2.5 4.8 1.4 2.9 3.6 6.9 7.2 10.1 3.5 3.2 7.7 4.7 10.9 5.2C1652.6 1294.6 1654.7 1294.6 1654.8 1295.1zM1678.8 1279.8c.3-.1 1.7 2 3.1 5.8 1.4 3.8 2.6 9.4 2.7 15.6.3 12.6-4 22.1-4.7 21.7-.8-.2 2-9.7 1.8-21.7C1681.6 1289.3 1677.9 1280.1 1678.8 1279.8zM1713.8 1266.9c0 0-13.9-3-18.5 2-11.4 12.6-5.2 50.5-2.2 68.5 5.4 5.1 21.9 3.9 21.9 3.9S1732.5 1272.8 1713.8 1266.9z"/><path fill="#30a0b2" d="M2083.3,953.4l-29.7,11.2l-96.5,250.7l-243.3,51.6l1.2,74.5c0,0,255.6,68.6,318.2,19.2
			c50.7-40,45-254.2,45-254.2L2083.3,953.4z"/><path fill="#1b2d51" d="M1966.9,1225.1c0,0,71.2,33.9,55,37.8C2005.8,1266.8,1979,1250.4,1966.9,1225.1z"/><path fill="#30a0b2" d="M1933,1488.2c72.1,91.1,306.1,41.9,471.6-0.6c7.9-2-135.9-533.1-172.3-537.3s-148.9,3.2-148.9,3.2
			S1992.3,1311.2,1933,1488.2z"/><path fill="#1b2d51" d="M2054.5 1061.9c0 0-131.2 413.2-120.7 415.5C1944.3 1479.8 2054 1083.7 2054.5 1061.9zM2256.3 1275.2c26.4-26.7 120.5 89.6 120.5 89.6l24.1 99.4C2400.9 1464.3 2294.3 1399.4 2256.3 1275.2z"/><path fill="#30a0b2" d="M2232.9,950.5l30.3,4.8c0,0,288.7,326.3,253,395.7c-35.7,69.4-162.5-36.4-162.5-36.4l-53.9-166.1
			L2232.9,950.5z"/><path fill="#1b2d51" d="M2300,1148.5c0,0,15.9,110.6,37.9,105C2346.8,1251.2,2300,1148.5,2300,1148.5z"/><path fill="#fda998" d="M2214.8 790.5c0 0 21.8-15.1 30.5 4.1 8.7 19.2-8.9 50.6-28.5 36.6L2214.8 790.5zM2104.5 777.6c0 0-20.2-17.3-30.7 1-10.6 18.3 3.8 51.2 24.7 39.3L2104.5 777.6z"/><path fill="#1b2d51" d="M2242.5,807.7c0.2-1.2,0.2-2.4,0-3.5c-0.6-5.2-4.1-9-4.2-9.1c-0.5-0.5-1.3-0.6-1.8-0.1
							c-0.5,0.5-0.6,1.3-0.1,1.8c0.2,0.1,2.1,2.3,3,5.3c-2-1.1-3.5-1.5-3.6-1.5c-0.7-0.2-1.4,0.2-1.5,0.9c-0.2,0.7,0.2,1.4,0.9,1.5
							c0.2,0.1,2.6,0.7,4.8,2.4c0,2.2-0.6,4.5-2.5,6.9c-0.4,0.5-0.3,1.3,0.2,1.8c0.1,0.1,0.3,0.2,0.4,0.2c0.5,0.1,1,0,1.4-0.4
							C2241.3,811.8,2242.1,809.7,2242.5,807.7z"/><path fill="#fda998" d="M2200.6,936c0,0-12.1,12.1-34.8,12.1c-22.7,0-36.2-11.4-36.2-11.4s4.1-21.5,6.9-36.6
					c1.6-8.9,2.9-16.1,3.1-17.2h52.5l3.7,22.6L2200.6,936z"/><path fill="#da5638" d="M2123.6,958v29.2c0,0-76,305.3-68.8,488.9l40.8,61.9l80.2-73.3c0,0-59.5-311.3-27.9-468.8l20.9-25.9
				l-6.5-19.4l-26.6-3.4L2123.6,958z"/><path fill="#1b2d51" d="M2147.7,954.7c0,0-16.3,17.4-23.2,16c-8.6-1.7-17.1-15.4-12.7-23.4c4.4-8,21-28.3,21-28.3
				s-1.5,12.2,24.8,19.3s40.9-14.3,40.9-14.3s19.1,19,14.7,25.6c-4.4,6.6-24.7,24.4-37.5,29.9
				C2163.1,984.9,2147.7,954.7,2147.7,954.7z"/><path fill="#fda998" d="M2085.5,715.9c32.6-8.3,72.2-1.7,139.5,0.7c10.8,4.3,10.6,56.8,2.7,96.2c-7.5,37.2-24.2,100.6-78.7,97.8
					c-45.4-2.3-63.3-53.9-66.1-103.5C2080.9,771.3,2082,735.9,2085.5,715.9z"/><path fill="#1b2d51" d="M2231.3,790.3c0-0.4-3.2-5.9-4-5.2c-0.7,0.7-19.6,72.3-38.8,76.3c-16.6,3.5-29.2-12-47-12.9
					c-10.2-0.5-25.3,11.1-32.4,9.7c-25.3-4.9-28.4-75.9-28.4-75.5c-3.8,105.7,39.9,126.5,68.4,128c31.6,1.6,50.4-19,62.2-43.9
					c0.2-0.2,0.4-0.3,0.4-0.3S2230,826.8,2231.3,790.3z"/><path fill="#1b2d51" d="M2221.3,689c9.1-5.8,12.8-18.4,11.1-23.5c-2.7-8-26.6,15.2-26.6,15.2s14.5-18,6.1-27.6
					c-6-6.9-9.3,14.8-10.7,27.6c-8.7-9.3-15.8-23.3-22.7-27.6c-53.3-32.8-84.6,32.7-102.8,39.7c-36.3,14.1-4.1,84.6,6.1,90.5
					c23.6-9.4-9.3-58.7,27.8-52c17.9,3.2,41.1-15.3,46.3-11.5c1.9,1.4-11.8,14.9-10.3,20.6c2.4,9.5,51.8-21.8,51.8-21.8
					s2.8,37.7,27.6,41c-2.9,20.4-4.3,34.9,5.6,32.2c5.3-1.4,14.6-14.2,19.1-36.2C2257.3,718,2253.4,681.1,2221.3,689z"/><g><path fill="#1b2d51" d="M2162.3 780.5c0 0 34.9 0 38.6-3.2 3.7-3.3-6.9-11-22.4-7.9C2163 772.4 2158.4 780.2 2162.3 780.5zM2134.3 779.1c0 0-34.8-3.5-38.1-7.1-3.3-3.6 7.9-10.3 23.1-5.6C2134.5 771 2138.3 779.2 2134.3 779.1z"/><path fill="#1b2d51" d="M2192.2 828.4c.4 4.9-5.3 9.4-12.8 10.1-7.5.6-13.9-2.9-14.3-7.8-.4-4.9 5.3-9.4 12.8-10.1C2185.4 820 2191.8 823.5 2192.2 828.4zM2095.1 821c-.9 4.9 4.3 9.9 11.7 11.3 7.4 1.4 14.1-1.4 15-6.3.9-4.9-4.3-9.9-11.7-11.3C2102.8 813.3 2096 816.1 2095.1 821z" opacity=".25"/><path fill="#1b2d51" d="M2144.4 833c-.7-.1-1.4-.2-2.1-.5-4.3-1.6-5.7-6.7-5.8-6.9-.2-.6 0-1.3.4-1.8 8.3-10.7 7.6-26.2 7.6-26.3-.1-1.1.8-2.1 2-2.2 1.1-.1 2.1.8 2.2 2 0 .7.7 16.3-7.8 28.2.5 1.1 1.5 2.7 2.9 3.3 1.4.5 3.1.1 5.2-1.2 1-.6 2.2-.3 2.9.6.6 1 .3 2.2-.6 2.9C2148.8 832.5 2146.5 833.2 2144.4 833zM2120.2 794.2c0-1-.2-1.9-.5-2.8-.6.5-1.3.7-2 .7-2.2.1-4.1-2-4.1-4.7 0-.8.2-1.6.5-2.2-.7-.2-1.3-.3-1.9-.3-4.4.1-7.9 4.4-7.9 9.6 0 5.2 3.6 9.4 8.1 9.3C2116.8 803.7 2120.3 799.4 2120.2 794.2zM2191.7 797.8c0-1-.2-1.9-.5-2.8-.6.5-1.3.7-2 .7-2.2.1-4.1-2-4.1-4.7 0-.8.2-1.6.5-2.2-.7-.2-1.3-.3-1.9-.3-4.4.1-7.9 4.4-7.9 9.6 0 5.2 3.6 9.4 8.1 9.3C2188.2 807.3 2191.7 803 2191.7 797.8z"/></g><path fill="#fff" d="M2134,863.8c3.4-3.3,8.3-6.4,16.5-0.4c2.2,1.6-0.7,10.6-7.9,10.8C2134.9,874.4,2132,865.8,2134,863.8z"/><g><path fill="#febb46" d="M2209.4,1113.8l-174.1-23.4c-3.4-0.5-6.4,1.9-6.9,5.3l-13.1,97.2c-0.5,3.4,1.9,6.4,5.3,6.9l174.1,23.4
					c3.4,0.5,6.4-1.9,6.9-5.3l13.1-97.2C2215.2,1117.3,2212.8,1114.2,2209.4,1113.8z"/><path fill="#fff" d="M2132.2,1095.4c0.3-2.5-1.5-4.8-4-5.2l-8.1-1.1c-2.5-0.3-4.8,1.4-5.2,3.9c-4.8-0.3-9,3.2-9.7,8l-0.4,2.9
					c-0.2,1.3,0.7,2.5,2.1,2.7l29.6,4c1.3,0.2,2.5-0.7,2.7-2.1l0.4-2.9C2140.1,1100.8,2136.9,1096.4,2132.2,1095.4z"/><rect width="16.3" height="8.7" x="2115" y="1135.6" fill="#fff" transform="rotate(7.671 2122.808 1139.789)"/><rect width="26.4" height="8.7" x="2167.8" y="1143.4" fill="#fff" transform="rotate(7.666 2181.277 1147.958)"/><rect width="26.5" height="8.7" x="2136.1" y="1139.2" fill="#fff" opacity=".5" transform="rotate(7.666 2149.783 1143.782)"/><rect width="26.8" height="8.7" x="2112.6" y="1153.9" fill="#fff" opacity=".5" transform="rotate(7.666 2126.368 1158.459)"/><rect width="47.9" height="8.7" x="2144.1" y="1159.5" fill="#fff" transform="rotate(7.666 2168.685 1164.292)"/><rect width="47.9" height="8.7" x="2110.1" y="1172.8" fill="#fff" opacity=".5" transform="rotate(7.666 2134.711 1177.559)"/><path fill="#fff" d="M2098.6,1156.5c-0.7,5-2.7,9.6-5.7,13.3c-5.7,7.2-15,11.3-24.9,10c-9.8-1.3-17.7-7.7-21.3-16.2
						c-1.9-4.4-2.7-9.3-2-14.3c2-14.9,15.7-25.3,30.5-23.3C2090.2,1128,2100.6,1141.6,2098.6,1156.5z"/><path fill="#30a0b2" d="M2082.4,1151.8l-20.7-2.8c-6.2,3.9-11.5,8.9-15.9,11.7c0.3,1,0.6,1.9,1,2.8c3.6,8.5,11.5,14.9,21.3,16.2
						c9.8,1.3,19.1-2.8,24.9-10c0.6-0.8,1.2-1.6,1.7-2.4C2090.4,1162.7,2086.5,1156.5,2082.4,1151.8z"/><polygon fill="#1b2d51" points="2058.6 1164.5 2056.5 1175.3 2053.9 1173.4 2051.8 1171.3 2056 1170.7"/><polygon fill="#1b2d51" points="2080.9 1167.5 2081.8 1178.1 2084.2 1177 2086.8 1175.4 2083.3 1174.3"/><path fill="#fda998" d="M2080.8,1135.9c0,0,2.5-1.3,3.2,0.9c0.6,2.1-1.7,5.2-3.5,3.5L2080.8,1135.9z"/><path fill="#1b2d51" d="M2083.5,1138.1c0-0.1,0.1-0.3,0.1-0.4c0-0.6-0.3-1-0.3-1c0-0.1-0.1-0.1-0.2,0c-0.1,0-0.1,0.1,0,0.2
										c0,0,0.2,0.3,0.2,0.6c-0.2-0.1-0.4-0.2-0.4-0.2c-0.1,0-0.1,0-0.2,0.1c0,0.1,0,0.1,0.1,0.2c0,0,0.3,0.1,0.5,0.3
										c0,0.2-0.1,0.5-0.4,0.7c-0.1,0.1-0.1,0.1,0,0.2c0,0,0,0,0,0c0,0,0.1,0,0.1,0C2083.3,1138.5,2083.4,1138.3,2083.5,1138.1z"/><path fill="#fda998" d="M2067.8,1134.2c0,0-2.1-1.9-3.3,0c-1.2,1.9,0.2,5.5,2.5,4.3L2067.8,1134.2z"/><path fill="#1b2d51" d="M2064.6,1135.6c0-0.1,0-0.3,0-0.4c0.1-0.5,0.6-0.9,0.6-0.9c0.1,0,0.1,0,0.2,0c0,0.1,0,0.1,0,0.2
										c0,0-0.3,0.2-0.4,0.5c0.2-0.1,0.4-0.1,0.4-0.1c0.1,0,0.1,0,0.1,0.1c0,0.1,0,0.1-0.1,0.2c0,0-0.3,0-0.5,0.2
										c0,0.2,0,0.5,0.2,0.8c0,0.1,0,0.1,0,0.2c0,0,0,0,0,0c-0.1,0-0.1,0-0.1-0.1C2064.7,1136,2064.6,1135.8,2064.6,1135.6z"/><path fill="#fda998" d="M2075.9,1150.9c0,0-1.4,1.1-3.8,0.8c-2.4-0.3-3.7-1.7-3.7-1.7s0.7-2.2,1.2-3.8c0.3-0.9,0.5-1.7,0.6-1.8
								l5.5,0.7l0.1,2.4L2075.9,1150.9z"/><path fill="#fda998" d="M2068.2,1126.2c3.6-0.4,7.6,0.8,14.7,2.1c1.1,0.6,0.3,6.1-1.1,10.2c-1.3,3.8-4,10.3-9.7,9.2
								c-4.8-0.9-5.9-6.6-5.5-11.8C2066.9,1132,2067.6,1128.3,2068.2,1126.2z"/><path fill="#1b2d51" d="M2082.5,1136.1c0,0-3.4,6.7-5.5,6.9c-1.8,0.1-1.8-1.5-3.6-1.9c-1.1-0.2-2.8,2-4.7,0.4
								c-2.1-1.8-1.7-8.8-1.7-8.7c-1.9,11.1,2.2,14.3,5.2,14.8c3.3,0.6,5.6-1.3,7.2-3.7c0,0,0,0,0,0S2081.9,1140,2082.5,1136.1z"/><path fill="#1b2d51" d="M2082.9,1125.3c1-0.5,1.6-1.8,1.5-2.3c-0.2-0.9-3,1.2-3,1.2s1.8-1.7,1-2.8c-0.5-0.8-1.2,1.4-1.5,2.8
								c-0.8-1.1-1.3-2.7-2-3.2c-5.2-4.2-9.4,2.2-11.4,2.7c-4,1-1.4,8.9-0.5,9.7c2.6-0.7-0.3-6.4,3.5-5.1c1.8,0.6,4.5-1,5-0.6
								c0.2,0.2-1.4,1.4-1.4,2c0.1,1,5.8-1.6,5.8-1.6s-0.2,4,2.3,4.7c-0.6,2.1-0.9,3.6,0.1,3.5c0.6-0.1,1.7-1.3,2.5-3.5
								C2086.3,1128.9,2086.4,1125,2082.9,1125.3z"/><path fill="#1b2d51" d="M2075.8 1133.5c0 0 3.7.5 4.1.2.4-.3-.6-1.3-2.2-1.2C2076 1132.7 2075.4 1133.5 2075.8 1133.5zM2073.4 1133.5c0 0-3.6-.9-3.9-1.3-.3-.4 1-1 2.5-.3C2073.5 1132.7 2073.8 1133.6 2073.4 1133.5z"/><path fill="#1b2d51" d="M2079.7 1139.4c0 .5-.7.9-1.5.9-.8 0-1.4-.5-1.4-1 0-.5.7-.9 1.5-.9C2079.2 1138.4 2079.8 1138.9 2079.7 1139.4zM2068.7 1137.9c-.2.5.3 1.1 1.1 1.4.8.3 1.5 0 1.7-.5.2-.5-.3-1.1-1.1-1.4C2069.6 1137.2 2068.8 1137.4 2068.7 1137.9z" opacity=".25"/><path fill="#1b2d51" d="M2073.5 1139.4c-.1 0-.1 0-.2-.1-.4-.2-.5-.8-.5-.8 0-.1 0-.1.1-.2 1-1 1.2-2.7 1.2-2.7 0-.1.1-.2.2-.2.1 0 .2.1.2.2 0 .1-.2 1.7-1.2 2.9 0 .1.1.3.3.4.1.1.3.1.6-.1.1-.1.2 0 .3.1.1.1 0 .2-.1.3C2073.9 1139.4 2073.7 1139.4 2073.5 1139.4zM2071.8 1134.9c0-.1 0-.2 0-.3-.1 0-.2.1-.2 0-.2 0-.4-.3-.4-.5 0-.1 0-.2.1-.2-.1 0-.1-.1-.2-.1-.5-.1-.9.4-1 .9-.1.6.2 1 .7 1.1C2071.3 1135.8 2071.7 1135.4 2071.8 1134.9zM2078.4 1135.8c0-.1 0-.2 0-.3-.1 0-.1.1-.2 0-.2 0-.4-.3-.4-.5 0-.1 0-.2.1-.2-.1 0-.1-.1-.2-.1-.5-.1-.9.4-1 .9-.1.6.2 1 .7 1.1C2077.9 1136.7 2078.3 1136.3 2078.4 1135.8z"/><path fill="#fff" d="M2072.3,1143.2c0.4-0.3,1-0.6,1.7,0.2c0.2,0.2-0.2,1.1-1,1C2072.3,1144.4,2072.1,1143.4,2072.3,1143.2z"/><path fill="#fda998" d="M2262.3,1205c-16-13.9-30.7-32.6-39-34.4c-14.1-3-66.7,2.2-66.7,2.2s-0.5,7.2,0.8,9.9
				c2.1,4.3,10.6,7.3,20.3,7.8c-6.7,0.9-18.8,3.8-18.8,3.8s1.6,8.4,3.6,10.5c2.8,2.9,10.4,4.8,16.6,4.9c-4.7,1.2-12.7,2.7-12.7,2.7
				s2.8,9.2,5.2,11c4.5,3.5,14.2,3.9,22.6,3.8c-6.1,0.9-16,4.9-16,4.9s4.1,7.7,6.2,9.4c8.2,6.6,40.3,5.3,40.3,5.3
				c6.6,7,31.4,22.9,40.5,21.5c3.3-0.5,29.2-41.9,29.2-41.9S2274.3,1215.4,2262.3,1205z"/><g><path fill="#1b2d51" d="M2213.5,1190c-0.2,0.8-8,0.2-17.9,0.6c-9.8,0.3-17.9,0.7-18-0.1c-0.1-0.8,7.9-2.5,17.9-2.8
					c5-0.2,9.6,0.1,12.8,0.7C2211.6,1188.9,2213.6,1189.6,2213.5,1190z"/></g><g><path fill="#1b2d51" d="M2213.1,1208.6c-0.1,0.8-7.6,1-17,1.5c-9.4,0.4-17,0.5-17.1-0.3c-0.1-0.8,7.5-2.2,17-2.7
					C2205.4,1206.6,2213.2,1207.7,2213.1,1208.6z"/></g><g><path fill="#1b2d51" d="M2210.8,1226.7c0.1,0.8-4.4,1.8-9.9,2.1c-5.5,0.3-10.1,0-10.1-0.9c-0.1-0.8,4.4-1.8,9.9-2.1
					S2210.7,1225.8,2210.8,1226.7z"/></g></g><path fill="#1b2d51" d="M2289.6,1211.9c0,0-18.8-10.5-22.9-9.1c-4.1,1.4-32.2,54.5-29.7,57.8c2.5,3.3,24.1,16.5,24.1,16.5
			L2289.6,1211.9z"/><path fill="#30a0b2" d="M2283.9,1208.8l-27.6,66.4c0,0,117.1,119,155.8,129.4c38.7,10.4,90.8-17.7,104.2-53.7
			c9.3-25-24.2-63.7-24.2-63.7L2283.9,1208.8z"/><path fill="#1b2d51" d="M2283.9,1208.8c0,0,174.4,50.3,165,62.8C2433.7,1291.6,2283.9,1208.8,2283.9,1208.8z"/></g><g><path fill="#febb46" d="M960.2,1659.5c28.5,52.9,57.9,106.4,88.4,160.4c1.7,3.1,0.6,6.8-2.5,8.3c-85.7,41.4-177,71-271.4,87.8
			c-3.4,0.6-7-0.9-7.9-3.4c-15.5-43.8-30.2-86.8-44.1-129c-0.8-2.4,1-5.2,4-6.3c81.1-29.3,157.3-69.8,226.1-119.9
			C955.3,1655.6,958.6,1656.5,960.2,1659.5z"/><path fill="#da5638" d="M722.5 1782.8c45.1 5.9 91.9 12.1 140.8 18.1 4.5.5 9.1-.1 13.3-1.9l0 0c4.2-1.8 7.9-4.6 10.5-8.3 28.6-39.8 53-84.1 72.6-132.2-22.2 48.1-49.5 92-81.1 131.1-2.5 3.1-6.4 4.8-10.4 4.5C817.9 1790.7 769.4 1786.8 722.5 1782.8zM1045.2 1813.8c-53.9-4.7-105.4-10.1-154.8-15.8-4.5-.5-9.1.2-13.3 2l0 0c-4.2 1.8-7.9 4.6-10.6 8-30 38.1-64 71.5-101.3 99.6 40.2-27.4 77.1-60.4 109.8-98.3 2.6-3 6.6-4.7 10.6-4.4C936.7 1808.6 989.8 1811.8 1045.2 1813.8z"/><path fill="#febb46" d="M808,1479.8c4.4,40.4,9.3,81.5,14.7,123.1c0.3,2.4-1.4,4.4-3.7,4.6c-64.2,4.2-129.1-0.3-192.5-13.8
			c-2.3-0.5-4.1-2.4-4.1-4.1c1.4-31.4,3.1-62.1,5.1-92.1c0.1-1.7,1.9-3,4.1-2.9c58.3,2.2,116.4-3.9,172.2-17.9
			C805.8,1476.1,807.7,1477.5,808,1479.8z"/><path fill="#da5638" d="M627.5 1496.8c26.8 15.2 54.6 30.9 83.7 47.1 2.7 1.5 5.7 2.3 8.8 2.2l0 0c3.1 0 6.1-.9 8.7-2.5 28-17.7 54.6-39.3 79.1-64.5-26.1 24.5-54.4 45.2-84.1 61.7-2.3 1.3-5.3 1.4-7.7.2C685.4 1526 656 1511.2 627.5 1496.8zM822.1 1598.1c-32.6-16.6-63.6-33.1-93.1-49.2-2.7-1.5-5.8-2.2-8.9-2.2l0 0c-3.1 0-6.1.9-8.7 2.3-28.5 16.3-58.3 28.6-88.8 36.8 32.2-7 63.7-18.3 93.8-33.8 2.4-1.2 5.3-1.3 7.8 0C755.4 1567.4 787.9 1582.8 822.1 1598.1z"/><g><path fill="#febb46" d="M2404.9,760.4c-37.7,0-68.3,31-68.3,69.2c0,38.2,30.6,69.2,68.3,69.2c37.7,0,68.3-31,68.3-69.2
			C2473.2,791.4,2442.6,760.4,2404.9,760.4z M2404.9,867.2c-20.5,0-37.1-16.8-37.1-37.6c0-20.8,16.6-37.6,37.1-37.6
			c20.5,0,37.1,16.8,37.1,37.6C2442,850.3,2425.4,867.2,2404.9,867.2z"/><path fill="#da5638" d="M2375.9,823.2c1.2-0.7,14.4-12.7,14.4-12.7l15.2,17.1l36.3-33.8l14.1,11.9l-50,48.3L2375.9,823.2z"/></g></g></svg>